<?xml version="1.0" encoding="utf-8"?>
<!-- Generator: Adobe Illustrator 24.2.3, SVG Export Plug-In . SVG Version: 6.00 Build 0)  -->
<svg version="1.1" id="圖層_1" xmlns="http://www.w3.org/2000/svg" xmlns:xlink="http://www.w3.org/1999/xlink" x="0px" y="0px"
	 viewBox="0 0 128.94 199.6" style="enable-background:new 0 0 128.94 199.6;" xml:space="preserve">
<style type="text/css">
	.st0{fill:#EFEFF0;}
	.st1{fill:none;stroke:#37444E;stroke-width:2;stroke-miterlimit:10;}
	.st2{fill-rule:evenodd;clip-rule:evenodd;fill:url(#SVGID_1_);}
	.st3{fill:url(#SVGID_2_);}
	.st4{clip-path:url(#SVGID_4_);}
	.st5{fill:none;stroke:#98BEE5;stroke-width:3.5749;stroke-miterlimit:10;}
	.st6{fill:none;stroke:#98BEE5;stroke-width:1.5014;stroke-miterlimit:10;}
	.st7{fill:#98BEE5;}
	.st8{clip-path:url(#SVGID_6_);fill-rule:evenodd;clip-rule:evenodd;fill:url(#SVGID_7_);}
	.st9{clip-path:url(#SVGID_6_);fill-rule:evenodd;clip-rule:evenodd;fill:url(#SVGID_8_);}
	.st10{opacity:0.65;}
	.st11{fill-rule:evenodd;clip-rule:evenodd;fill:#3D72A5;}
	.st12{fill:#FFFBF8;}
	.st13{clip-path:url(#SVGID_10_);fill:url(#SVGID_11_);}
	.st14{opacity:0.48;clip-path:url(#SVGID_10_);fill:url(#);}
	.st15{clip-path:url(#SVGID_10_);fill:url(#SVGID_12_);}
	.st16{clip-path:url(#SVGID_14_);}
	.st17{fill:#2F3034;}
	.st18{fill:#6084C1;}
	.st19{fill:#A7AAAE;}
	.st20{fill:#C0C0C1;}
	.st21{fill:#B6B7B8;}
	.st22{fill:#D7D9DD;}
	.st23{fill:#ECEDED;}
	.st24{fill:#C9CBCF;}
	.st25{fill:#A3A4AA;}
	.st26{fill:#FFFFFF;}
	.st27{fill:#85AAFF;}
	.st28{fill:#3952A7;}
	.st29{fill:#CCCBCB;}
	.st30{fill:none;stroke:#2F3093;stroke-width:0.6725;stroke-miterlimit:10;}
	.st31{fill:#464748;}
	.st32{fill:#737373;}
	.st33{fill:#4061C1;}
	.st34{fill:#2F53C1;}
	.st35{fill:#134E8B;}
	.st36{fill:#AACDF3;}
	.st37{fill:#CDEEFD;}
	.st38{fill:#E5F7FF;}
	.st39{fill:#88C7F4;}
	.st40{fill:#05A0D9;}
	.st41{fill:#D1EFFE;}
	.st42{fill:#6292B8;}
	.st43{fill:none;stroke:#4C96C5;stroke-width:0.6238;stroke-miterlimit:10;}
	.st44{fill:none;stroke:#4C96C5;stroke-width:0.5754;stroke-miterlimit:10;}
	.st45{fill:none;stroke:#FFFFFF;stroke-width:9.2345;stroke-linecap:round;stroke-linejoin:round;stroke-miterlimit:10;}
	.st46{fill:#356CB5;}
	.st47{fill:none;stroke:#FFFFFF;stroke-width:14.676;stroke-linecap:round;stroke-linejoin:round;stroke-miterlimit:10;}
	.st48{fill:none;stroke:#FFFFFF;stroke-width:8.7982;stroke-linecap:round;stroke-linejoin:round;stroke-miterlimit:10;}
	.st49{fill-rule:evenodd;clip-rule:evenodd;fill:#FFFFFF;}
	.st50{fill:none;stroke:#FFFFFF;stroke-width:16.5;stroke-linecap:round;stroke-linejoin:round;stroke-miterlimit:10;}
	.st51{fill-rule:evenodd;clip-rule:evenodd;fill:url(#SVGID_15_);}
	.st52{fill-rule:evenodd;clip-rule:evenodd;fill:url(#SVGID_16_);}
	.st53{fill-rule:evenodd;clip-rule:evenodd;fill:url(#SVGID_17_);}
	.st54{fill:none;}
	.st55{fill:url(#SVGID_18_);}
	.st56{opacity:0.48;fill:url(#);}
	.st57{fill:url(#SVGID_19_);}
	.st58{fill:url(#);}
	.st59{fill:#A9D7F3;}
	.st60{fill:none;stroke:#576780;stroke-width:6;stroke-miterlimit:10;}
	.st61{fill:#576780;}
	.st62{clip-path:url(#SVGID_21_);fill:#76838B;}
	.st63{fill:#BEC0C2;}
	.st64{fill:#76838B;}
	.st65{fill:#ED1B23;}
	.st66{fill:#76858D;}
	.st67{fill:#E0E1E2;}
	.st68{fill:none;stroke:#E0E1E2;stroke-width:4.5;stroke-miterlimit:10;}
	.st69{fill:#FFF6ED;}
	.st70{fill:#FFFFFF;stroke:#BABCBE;stroke-width:2;stroke-miterlimit:10;}
	.st71{fill:#FFF6ED;stroke:#BABCBE;stroke-miterlimit:10;}
	.st72{fill:#FFFFFF;stroke:#BABCBE;stroke-miterlimit:10;}
	.st73{clip-path:url(#SVGID_23_);fill:#FFF6ED;stroke:#BABCBE;stroke-miterlimit:10;}
	.st74{clip-path:url(#SVGID_23_);}
	.st75{fill:#F3756A;}
	.st76{clip-path:url(#SVGID_23_);fill:#73AFC9;}
	.st77{clip-path:url(#SVGID_25_);}
	.st78{fill:#703916;}
	.st79{clip-path:url(#SVGID_23_);fill:#FFF6ED;stroke:#BABCBE;stroke-width:2;stroke-miterlimit:10;}
	.st80{fill:#77905D;}
	.st81{fill:#73AFC9;}
	.st82{clip-path:url(#SVGID_27_);}
	.st83{fill:none;stroke:#005F79;stroke-width:2;stroke-miterlimit:10;}
	.st84{clip-path:url(#SVGID_31_);}
	.st85{fill:none;stroke:#73AFC9;stroke-miterlimit:10;}
	.st86{fill:url(#SVGID_32_);}
	.st87{clip-path:url(#SVGID_34_);}
	.st88{clip-path:url(#SVGID_36_);fill-rule:evenodd;clip-rule:evenodd;fill:url(#SVGID_37_);}
	.st89{clip-path:url(#SVGID_36_);fill-rule:evenodd;clip-rule:evenodd;fill:url(#SVGID_38_);}
	.st90{clip-path:url(#SVGID_40_);fill:url(#SVGID_41_);}
	.st91{opacity:0.48;clip-path:url(#SVGID_40_);fill:url(#);}
	.st92{clip-path:url(#SVGID_40_);fill:url(#SVGID_42_);}
	.st93{clip-path:url(#SVGID_44_);}
	.st94{fill-rule:evenodd;clip-rule:evenodd;fill:url(#SVGID_45_);}
	.st95{fill-rule:evenodd;clip-rule:evenodd;fill:url(#SVGID_46_);}
	.st96{fill-rule:evenodd;clip-rule:evenodd;fill:url(#SVGID_47_);}
	.st97{fill:#DEE7EB;}
	.st98{clip-path:url(#SVGID_49_);fill:#76838B;}
	.st99{fill:#E1EDF3;}
	.st100{fill:#DFF3FD;}
	.st101{fill:#BEE7FB;}
	.st102{clip-path:url(#SVGID_51_);}
	.st103{fill:#42758D;}
	.st104{clip-path:url(#SVGID_53_);}
	.st105{clip-path:url(#SVGID_55_);}
	.st106{clip-path:url(#SVGID_59_);}
	.st107{opacity:0.45;}
	.st108{fill:url(#SVGID_60_);}
	.st109{clip-path:url(#SVGID_62_);}
	.st110{clip-path:url(#SVGID_64_);fill-rule:evenodd;clip-rule:evenodd;fill:url(#SVGID_65_);}
	.st111{clip-path:url(#SVGID_64_);fill-rule:evenodd;clip-rule:evenodd;fill:url(#SVGID_66_);}
	.st112{clip-path:url(#SVGID_68_);fill:url(#SVGID_69_);}
	.st113{opacity:0.48;clip-path:url(#SVGID_68_);fill:url(#);}
	.st114{clip-path:url(#SVGID_68_);fill:url(#SVGID_70_);}
	.st115{clip-path:url(#SVGID_72_);}
	.st116{fill-rule:evenodd;clip-rule:evenodd;fill:url(#SVGID_73_);}
	.st117{fill-rule:evenodd;clip-rule:evenodd;fill:url(#SVGID_74_);}
	.st118{fill-rule:evenodd;clip-rule:evenodd;fill:url(#SVGID_75_);}
	.st119{clip-path:url(#SVGID_77_);fill:#76838B;}
	.st120{clip-path:url(#SVGID_79_);}
	.st121{clip-path:url(#SVGID_81_);}
	.st122{fill:#FFF6ED;stroke:#FFFFFF;stroke-width:2;stroke-miterlimit:10;}
	.st123{fill:#FFF6ED;stroke:#FFFFFF;stroke-miterlimit:10;}
	.st124{clip-path:url(#SVGID_83_);}
	.st125{clip-path:url(#SVGID_87_);}
	.st126{fill:none;stroke:#FFFFFF;stroke-width:4.4102;stroke-linecap:round;stroke-linejoin:round;stroke-miterlimit:10;}
	.st127{fill-rule:evenodd;clip-rule:evenodd;fill:url(#SVGID_88_);}
	.st128{fill-rule:evenodd;clip-rule:evenodd;fill:url(#SVGID_89_);}
	.st129{fill-rule:evenodd;clip-rule:evenodd;fill:url(#SVGID_90_);}
	.st130{clip-path:url(#SVGID_92_);}
	.st131{fill:#87D6F7;}
	.st132{fill:#00B3B6;}
	.st133{fill:#314B9C;}
	.st134{fill:#DFE7F3;}
	.st135{clip-path:url(#SVGID_92_);fill:#0D1843;}
	.st136{clip-path:url(#SVGID_92_);fill:#FFFFFF;}
	.st137{clip-path:url(#SVGID_92_);fill:#44291E;}
	.st138{clip-path:url(#SVGID_92_);fill:none;stroke:#44291E;stroke-miterlimit:10;}
	.st139{clip-path:url(#SVGID_92_);fill-rule:evenodd;clip-rule:evenodd;fill:none;stroke:#44291E;stroke-miterlimit:10;}
	.st140{clip-path:url(#SVGID_92_);fill:none;}
	.st141{fill:none;stroke:#FFFFFF;stroke-miterlimit:10;}
	.st142{fill:none;stroke:#FFFFFF;stroke-width:1.018;stroke-miterlimit:10;}
	.st143{fill:none;stroke:#FFFFFF;stroke-width:1.0504;stroke-miterlimit:10;}
	.st144{fill-rule:evenodd;clip-rule:evenodd;fill:url(#SVGID_93_);}
	.st145{fill:none;stroke:url(#SVGID_94_);stroke-width:2;stroke-miterlimit:10;}
	.st146{fill:none;stroke:url(#SVGID_95_);stroke-width:2;stroke-miterlimit:10;}
	.st147{fill:none;stroke:url(#SVGID_96_);stroke-width:2;stroke-miterlimit:10;}
	.st148{fill:none;stroke:url(#SVGID_97_);stroke-width:2;stroke-miterlimit:10;}
	.st149{fill:none;stroke:url(#SVGID_98_);stroke-width:2;stroke-miterlimit:10;}
	.st150{fill:none;stroke:url(#SVGID_99_);stroke-width:2;stroke-miterlimit:10;}
	.st151{fill:none;stroke:url(#SVGID_100_);stroke-width:2;stroke-miterlimit:10;}
	.st152{fill:none;stroke:url(#SVGID_101_);stroke-width:2;stroke-miterlimit:10;}
	.st153{fill:none;stroke:url(#SVGID_102_);stroke-width:2;stroke-miterlimit:10;}
	.st154{fill:none;stroke:url(#SVGID_103_);stroke-width:2;stroke-miterlimit:10;}
	.st155{fill:none;stroke:url(#SVGID_104_);stroke-width:2;stroke-miterlimit:10;}
	.st156{fill:none;stroke:url(#SVGID_105_);stroke-width:2;stroke-miterlimit:10;}
	.st157{fill:none;stroke:url(#SVGID_106_);stroke-width:2;stroke-miterlimit:10;}
	.st158{fill:none;stroke:url(#SVGID_107_);stroke-width:2;stroke-miterlimit:10;}
	.st159{fill:none;stroke:url(#SVGID_108_);stroke-width:2;stroke-miterlimit:10;}
	.st160{fill:none;stroke:url(#SVGID_109_);stroke-width:2;stroke-miterlimit:10;}
	.st161{fill:none;stroke:url(#SVGID_110_);stroke-width:2;stroke-miterlimit:10;}
	.st162{fill:none;stroke:url(#SVGID_111_);stroke-width:2;stroke-miterlimit:10;}
	.st163{fill:none;stroke:url(#SVGID_112_);stroke-width:2;stroke-miterlimit:10;}
	.st164{fill:none;stroke:url(#SVGID_113_);stroke-width:2;stroke-miterlimit:10;}
	.st165{fill:none;stroke:url(#SVGID_114_);stroke-width:2;stroke-miterlimit:10;}
	.st166{fill:none;stroke:url(#SVGID_115_);stroke-width:2;stroke-miterlimit:10;}
	.st167{fill:none;stroke:url(#SVGID_116_);stroke-width:2;stroke-miterlimit:10;}
	.st168{fill:none;stroke:url(#SVGID_117_);stroke-width:2;stroke-miterlimit:10;}
	.st169{fill:none;stroke:url(#SVGID_118_);stroke-width:2;stroke-miterlimit:10;}
	.st170{fill:none;stroke:url(#SVGID_119_);stroke-width:2;stroke-miterlimit:10;}
	.st171{fill:none;stroke:url(#SVGID_120_);stroke-width:2;stroke-miterlimit:10;}
	.st172{fill:none;stroke:url(#SVGID_121_);stroke-width:2;stroke-miterlimit:10;}
	.st173{fill:none;stroke:url(#SVGID_122_);stroke-width:2;stroke-miterlimit:10;}
	.st174{fill:none;stroke:url(#SVGID_123_);stroke-width:2;stroke-miterlimit:10;}
	.st175{fill:none;stroke:url(#SVGID_124_);stroke-width:2;stroke-miterlimit:10;}
	.st176{fill:none;stroke:url(#SVGID_125_);stroke-width:2;stroke-miterlimit:10;}
	.st177{fill:none;stroke:url(#SVGID_126_);stroke-width:2;stroke-miterlimit:10;}
	.st178{fill:none;stroke:url(#SVGID_127_);stroke-width:2;stroke-miterlimit:10;}
	.st179{fill:none;stroke:url(#SVGID_128_);stroke-width:2;stroke-miterlimit:10;}
	.st180{fill:none;stroke:url(#SVGID_129_);stroke-width:2;stroke-miterlimit:10;}
	.st181{fill:none;stroke:url(#SVGID_130_);stroke-width:2;stroke-miterlimit:10;}
	.st182{fill:none;stroke:url(#SVGID_131_);stroke-width:2;stroke-miterlimit:10;}
	.st183{fill:none;stroke:url(#SVGID_132_);stroke-width:2;stroke-miterlimit:10;}
	.st184{fill:none;stroke:url(#SVGID_133_);stroke-width:2;stroke-miterlimit:10;}
	.st185{fill:none;stroke:url(#SVGID_134_);stroke-width:2;stroke-miterlimit:10;}
	.st186{fill:none;stroke:url(#SVGID_135_);stroke-width:2;stroke-miterlimit:10;}
	.st187{fill:none;stroke:url(#SVGID_136_);stroke-width:2;stroke-miterlimit:10;}
	.st188{fill:none;stroke:url(#SVGID_137_);stroke-width:2;stroke-miterlimit:10;}
	.st189{fill:none;stroke:url(#SVGID_138_);stroke-width:2;stroke-miterlimit:10;}
	.st190{fill:none;stroke:url(#SVGID_139_);stroke-width:2;stroke-miterlimit:10;}
	.st191{fill:none;stroke:url(#SVGID_140_);stroke-width:2;stroke-miterlimit:10;}
	.st192{fill:none;stroke:url(#SVGID_141_);stroke-width:2;stroke-miterlimit:10;}
	.st193{fill:none;stroke:url(#SVGID_142_);stroke-width:2;stroke-miterlimit:10;}
	.st194{fill:none;stroke:url(#SVGID_143_);stroke-width:2;stroke-miterlimit:10;}
	.st195{fill:none;stroke:url(#SVGID_144_);stroke-width:2;stroke-miterlimit:10;}
	.st196{fill:none;stroke:url(#SVGID_145_);stroke-width:2;stroke-miterlimit:10;}
	.st197{fill:none;stroke:url(#SVGID_146_);stroke-width:2;stroke-miterlimit:10;}
	.st198{fill:none;stroke:url(#SVGID_147_);stroke-width:2;stroke-miterlimit:10;}
	.st199{fill:none;stroke:url(#SVGID_148_);stroke-width:2;stroke-miterlimit:10;}
	.st200{fill:none;stroke:url(#SVGID_149_);stroke-width:2;stroke-miterlimit:10;}
	.st201{fill:none;stroke:url(#SVGID_150_);stroke-width:2;stroke-miterlimit:10;}
	.st202{fill:none;stroke:url(#SVGID_151_);stroke-width:2;stroke-miterlimit:10;}
	.st203{fill:none;stroke:url(#SVGID_152_);stroke-width:2;stroke-miterlimit:10;}
	.st204{fill:none;stroke:url(#SVGID_153_);stroke-width:2;stroke-miterlimit:10;}
	.st205{fill:none;stroke:url(#SVGID_154_);stroke-width:2;stroke-miterlimit:10;}
	.st206{fill:none;stroke:url(#SVGID_155_);stroke-width:2;stroke-miterlimit:10;}
	.st207{fill:none;stroke:url(#SVGID_156_);stroke-width:2;stroke-miterlimit:10;}
	.st208{fill:none;stroke:url(#SVGID_157_);stroke-width:2;stroke-miterlimit:10;}
	.st209{fill:none;stroke:url(#SVGID_158_);stroke-width:2;stroke-miterlimit:10;}
	.st210{fill:none;stroke:url(#SVGID_159_);stroke-width:2;stroke-miterlimit:10;}
	.st211{fill:none;stroke:url(#SVGID_160_);stroke-width:2;stroke-miterlimit:10;}
	.st212{fill:none;stroke:url(#SVGID_161_);stroke-width:2;stroke-miterlimit:10;}
	.st213{fill:none;stroke:url(#SVGID_162_);stroke-width:2;stroke-miterlimit:10;}
	.st214{fill:none;stroke:url(#SVGID_163_);stroke-width:2;stroke-miterlimit:10;}
	.st215{fill:none;stroke:url(#SVGID_164_);stroke-width:2;stroke-miterlimit:10;}
	.st216{fill:none;stroke:url(#SVGID_165_);stroke-width:2;stroke-miterlimit:10;}
	.st217{fill:none;stroke:url(#SVGID_166_);stroke-width:2;stroke-miterlimit:10;}
	.st218{fill:none;stroke:url(#SVGID_167_);stroke-width:2;stroke-miterlimit:10;}
	.st219{fill:none;stroke:url(#SVGID_168_);stroke-width:2;stroke-miterlimit:10;}
	.st220{fill:none;stroke:url(#SVGID_169_);stroke-width:2;stroke-miterlimit:10;}
	.st221{fill:none;stroke:url(#SVGID_170_);stroke-width:2;stroke-miterlimit:10;}
	.st222{fill:none;stroke:url(#SVGID_171_);stroke-width:2;stroke-miterlimit:10;}
	.st223{fill:none;stroke:url(#SVGID_172_);stroke-width:2;stroke-miterlimit:10;}
	.st224{fill:none;stroke:url(#SVGID_173_);stroke-width:2;stroke-miterlimit:10;}
	.st225{fill:none;stroke:url(#SVGID_174_);stroke-width:2;stroke-miterlimit:10;}
	.st226{clip-path:url(#SVGID_176_);}
	.st227{fill:url(#SVGID_177_);}
	.st228{fill:#6CB0D2;}
	.st229{fill:#FCF495;}
	.st230{filter:url(#Adobe_OpacityMaskFilter);}
	.st231{opacity:0.81;mask:url(#SVGID_178_);}
	.st232{fill:url(#SVGID_179_);}
	.st233{fill:#008DD0;}
	.st234{fill:url(#SVGID_180_);}
	.st235{clip-path:url(#SVGID_176_);fill:#FFFBF8;}
	.st236{clip-path:url(#SVGID_176_);fill:none;stroke:#FFFFFF;stroke-miterlimit:10;}
	.st237{clip-path:url(#SVGID_182_);fill:url(#SVGID_183_);}
	.st238{clip-path:url(#SVGID_182_);fill:url(#SVGID_184_);}
	.st239{clip-path:url(#SVGID_182_);fill:url(#SVGID_185_);}
	.st240{fill:none;stroke:#2F3093;stroke-width:0.5923;stroke-miterlimit:10;}
	.st241{fill:none;stroke:#4C96C5;stroke-width:0.5214;stroke-miterlimit:10;}
	.st242{fill:none;stroke:#4C96C5;stroke-width:0.4809;stroke-miterlimit:10;}
	.st243{filter:url(#Adobe_OpacityMaskFilter_1_);}
	.st244{opacity:0.81;mask:url(#SVGID_186_);}
	.st245{fill:none;stroke:#FFFFFF;stroke-width:13.1632;stroke-linecap:round;stroke-linejoin:round;stroke-miterlimit:10;}
	.st246{fill:url(#SVGID_187_);}
	.st247{fill:url(#SVGID_188_);}
	.st248{fill:none;stroke:#FFFFFF;stroke-width:14.7992;stroke-linecap:round;stroke-linejoin:round;stroke-miterlimit:10;}
	.st249{fill-rule:evenodd;clip-rule:evenodd;fill:url(#SVGID_189_);}
	.st250{fill-rule:evenodd;clip-rule:evenodd;fill:url(#SVGID_190_);}
	.st251{fill-rule:evenodd;clip-rule:evenodd;fill:url(#SVGID_191_);}
	.st252{fill:none;stroke:#008FC9;stroke-width:5.7255;stroke-linecap:round;stroke-linejoin:round;stroke-miterlimit:10;}
	.st253{fill:none;stroke:#008FC9;stroke-width:5.3696;stroke-linecap:round;stroke-linejoin:round;stroke-miterlimit:10;}
	.st254{fill:none;stroke:#008FC9;stroke-width:3.5686;stroke-linecap:round;stroke-linejoin:round;stroke-miterlimit:10;}
	.st255{fill:none;stroke:#FFFFFF;stroke-width:4.7433;stroke-linecap:round;stroke-linejoin:round;stroke-miterlimit:10;}
	.st256{fill-rule:evenodd;clip-rule:evenodd;fill:url(#SVGID_192_);}
	.st257{fill-rule:evenodd;clip-rule:evenodd;fill:url(#SVGID_193_);}
	.st258{fill-rule:evenodd;clip-rule:evenodd;fill:url(#SVGID_194_);}
</style>
<g>
	
		<ellipse transform="matrix(0.5341 -0.8454 0.8454 0.5341 -95.4924 85.2562)" class="st17" cx="29.6" cy="129.26" rx="33.23" ry="27.91"/>
	<polygon class="st17" points="57.13,107.33 46.88,100.89 29.77,104.12 20.72,108.64 4.12,131.65 3.37,139.95 11.79,157.31 
		24.01,164.79 38.07,133.54 	"/>
	<polygon class="st18" points="74.47,110.93 45.85,91.4 62.66,82.31 92.65,100.03 	"/>
	<circle class="st19" cx="62.66" cy="90.49" r="8.18"/>
	<circle class="st20" cx="64.02" cy="90.49" r="6.82"/>
	
		<rect x="57.08" y="64.42" transform="matrix(0.9183 -0.3959 0.3959 0.9183 -25.5221 30.5202)" class="st21" width="8.18" height="25.33"/>
	<circle class="st22" cx="50.05" cy="40.9" r="40.9"/>
	<circle class="st23" cx="50.05" cy="40.9" r="34.99"/>
	<circle class="st24" cx="50.05" cy="40.9" r="32.26"/>
	<circle class="st25" cx="49.15" cy="39.08" r="24.08"/>
	<circle class="st26" cx="49.15" cy="39.08" r="23.63"/>
	<circle class="st27" cx="48.24" cy="35.44" r="14.09"/>
	<circle class="st28" cx="48.24" cy="35.44" r="9.32"/>
	<circle class="st26" cx="60.05" cy="32.72" r="4.09"/>
	<circle class="st29" cx="68.57" cy="94.12" r="8.18"/>
	
		<ellipse transform="matrix(0.5341 -0.8454 0.8454 0.5341 -95.4418 90.0521)" class="st240" cx="33.98" cy="131.62" rx="33.23" ry="27.91"/>
	
		<ellipse transform="matrix(0.5341 -0.8454 0.8454 0.5341 -96.1205 96.1623)" class="st31" cx="39.18" cy="135.29" rx="33.23" ry="27.91"/>
	
		<ellipse transform="matrix(0.5341 -0.8454 0.8454 0.5341 -97.4388 98.7855)" class="st32" cx="40.9" cy="137.79" rx="23.23" ry="19.51"/>
	<polygon class="st33" points="70.38,186.37 19.94,149.56 45.85,91.4 74.47,110.93 	"/>
	<polygon class="st34" points="70.38,186.37 110.83,155.47 92.65,100.03 74.47,110.93 	"/>
	
		<ellipse transform="matrix(0.5341 -0.8454 0.8454 0.5341 -95.2848 151.4402)" class="st17" cx="89.75" cy="162.17" rx="33.23" ry="27.91"/>
	<polygon class="st17" points="117.28,140.23 107.03,133.79 89.92,137.02 80.87,141.55 64.27,164.56 63.52,172.86 71.94,190.21 
		84.15,197.69 98.22,166.44 	"/>
	
		<ellipse transform="matrix(0.5341 -0.8454 0.8454 0.5341 -95.7508 155.8358)" class="st240" cx="93.51" cy="164.79" rx="33.23" ry="27.91"/>
	
		<ellipse transform="matrix(0.5341 -0.8454 0.8454 0.5341 -95.913 162.3463)" class="st31" cx="99.33" cy="168.19" rx="33.23" ry="27.91"/>
	
		<ellipse transform="matrix(0.5341 -0.8454 0.8454 0.5341 -97.2313 164.9695)" class="st32" cx="101.05" cy="170.7" rx="23.23" ry="19.51"/>
	<g>
		<g>
			<path class="st35" d="M51.45,131.62c-1.78-2.31-3.19-4.7-4.19-7.12c-0.8-1.93-1.33-3.88-1.59-5.79c-0.44-3.25,0.07-5.28,0.08-5.3
				l0,0l0,0l0-0.02l0.03-0.15l0.28-1.17l2.19-9.28c2.72,2.09,5,3.18,6.44,3.72c1.46,0.55,2.36,0.67,2.51,0.68
				c0.11,0.19,0.78,1.28,2.01,2.81c1.21,1.51,3.22,3.74,5.94,5.85l-2.19,9.28l-0.28,1.17l-0.03,0.15l0,0.02l0,0l0,0
				c0,0.02-0.46,2.11-2.06,3.78c-0.94,0.98-2.09,1.63-3.41,1.92C55.53,132.54,53.6,132.35,51.45,131.62L51.45,131.62z"/>
		</g>
		<path class="st26" d="M59.12,125.23c0.11-0.21,0.22-0.43,0.31-0.67c0.2,0.18,0.68,0.5,0.97-0.09c0,0-0.45-0.57-0.84-0.3
			c0.04-0.13,0.08-0.27,0.11-0.41c0.01-0.05,0.02-0.11,0.03-0.17c0.19,0.08,0.58,0.16,0.68-0.44c0,0-0.35-0.26-0.59-0.05
			c0.02-0.16,0.03-0.32,0.05-0.48c0.18,0.04,0.49,0.03,0.53-0.51c0,0-0.31-0.18-0.5,0.03c0.01-0.17,0.01-0.35,0.01-0.52
			c0.14,0,0.36-0.07,0.35-0.51c0,0-0.24-0.1-0.38,0.09c-0.01-0.13-0.01-0.26-0.03-0.39c0-0.04-0.02-0.07-0.03-0.1
			c0.03-0.32,0-0.83-0.4-1.36c0,0-0.28,0.61,0.16,1.41c0,0,0,0.01,0,0.01c0.02,0.16,0.02,0.31,0.03,0.46
			c-0.07-0.11-0.16-0.21-0.3-0.27c0,0-0.05,0.51,0.32,0.79c0,0.14,0,0.29,0,0.43c-0.07-0.18-0.19-0.36-0.39-0.48
			c0,0-0.11,0.61,0.35,1.01c-0.02,0.17-0.04,0.33-0.07,0.5c-0.06-0.23-0.18-0.49-0.46-0.67c0,0-0.12,0.65,0.39,1.07
			c-0.06,0.25-0.13,0.48-0.22,0.71c-0.03-0.31-0.14-0.72-0.54-1.04c0,0-0.23,0.77,0.4,1.38c-0.11,0.23-0.23,0.45-0.37,0.66
			c0.02-0.31-0.04-0.73-0.38-1.17c0,0-0.46,0.64,0.12,1.52c-0.15,0.18-0.31,0.34-0.49,0.48c-0.07,0.05-0.14,0.09-0.21,0.14
			c0.14-0.29,0.22-0.77-0.1-1.46c0,0-0.79,0.4-0.28,1.69c-0.23,0.11-0.46,0.18-0.71,0.22c0.15-0.21,0.25-0.59,0.02-1.27
			c0,0-0.71,0.27-0.43,1.33c-0.3,0.02-0.63-0.02-0.96-0.09c0.25-0.11,0.55-0.42,0.41-1.23c0,0-0.88-0.12-0.72,1.17
			c-0.55-0.14-1.13-0.39-1.75-0.71c-0.14-0.08-0.28-0.17-0.42-0.24c-0.69-0.69-1.3-1.39-1.81-2.12c0.63-0.67-0.03-1.75-0.03-1.75
			c-0.42,0.38-0.34,0.98-0.21,1.38c-0.25-0.39-0.49-0.78-0.7-1.19c0.62-0.37,0.23-1.48,0.23-1.48c-0.43,0.16-0.51,0.55-0.49,0.9
			c-0.15-0.35-0.29-0.71-0.4-1.08c0.87-0.22,0.48-1.53,0.48-1.53c-0.5,0.07-0.63,0.49-0.65,0.88c-0.03-0.12-0.07-0.24-0.09-0.37
			c-0.07-0.33-0.12-0.66-0.15-0.97c0.75,0.15,0.69-0.9,0.69-0.9c-0.42-0.15-0.63,0.06-0.73,0.31c-0.01-0.32-0.01-0.63,0.01-0.93
			c0.67,0.39,0.82-0.44,0.82-0.44c-0.4-0.3-0.64-0.17-0.79,0.01c0.03-0.27,0.08-0.52,0.13-0.77c0.51,0.37,0.69-0.23,0.69-0.23
			c-0.26-0.25-0.45-0.23-0.59-0.15c0.04-0.15,0.09-0.3,0.15-0.44c0.48,0.32,0.64-0.24,0.64-0.24c-0.19-0.18-0.35-0.21-0.46-0.18
			c0.05-0.11,0.11-0.21,0.17-0.31c0.37,0.28,0.53-0.14,0.53-0.14c-0.12-0.14-0.23-0.19-0.32-0.2c0.07-0.09,0.13-0.19,0.21-0.28
			c0,0,0-0.01,0-0.01c0.62,0.03,0.67-0.76,0.67-0.76c-0.48-0.15-0.71,0.16-0.82,0.42c-0.02,0-0.05,0.01-0.06,0.03
			c-0.06,0.07-0.12,0.16-0.17,0.23c-0.02-0.31-0.22-0.56-0.22-0.56c-0.19,0.29-0.06,0.63,0.04,0.81c-0.07,0.12-0.14,0.24-0.2,0.37
			c-0.05-0.4-0.34-0.68-0.34-0.68c-0.19,0.43,0.03,0.84,0.16,1.04c-0.06,0.13-0.11,0.26-0.16,0.4c-0.09-0.46-0.43-0.73-0.43-0.73
			c-0.17,0.55,0.13,1,0.29,1.2c-0.01,0.05-0.03,0.1-0.05,0.16c-0.03,0.14-0.06,0.28-0.09,0.43c-0.16-0.69-0.7-0.89-0.7-0.89
			c-0.03,0.79,0.43,1.19,0.64,1.33c-0.03,0.28-0.05,0.57-0.05,0.86c-0.31-0.78-0.9-0.74-0.9-0.74c0.16,0.87,0.67,1.09,0.9,1.15
			c0.01,0.34,0.04,0.69,0.08,1.05c-0.48-0.76-1.03-0.44-1.03-0.44c0.35,0.88,0.86,0.92,1.1,0.89c0.02,0.1,0.03,0.2,0.05,0.31
			c0.05,0.25,0.12,0.49,0.18,0.73c-0.51-0.76-1.08-0.43-1.08-0.43c0.4,1.02,1.01,1,1.24,0.95c0.11,0.35,0.25,0.7,0.39,1.03
			c-0.63-0.69-1.15-0.13-1.15-0.13c0.57,1.02,1.17,0.81,1.4,0.68c0.13,0.27,0.28,0.53,0.43,0.79c-0.67-0.49-1.1,0.19-1.1,0.19
			c0.7,0.99,1.28,0.62,1.5,0.42c0.4,0.59,0.85,1.16,1.35,1.71c-0.15-0.06-0.28-0.12-0.4-0.15c-0.21-0.05-0.36-0.08-0.41,0.07
			c-0.01,0.04-0.01,0.08,0,0.12l0.06,0.55c0,0.03,0.02,0.06,0.04,0.07c0,0,0,0,0,0c0.02,0.01,0.04,0.01,0.05,0
			c0.23-0.25,0.73-0.19,1.24-0.02c0.01,0.01,0.02,0.03,0.03,0.04c0.01,0,0.01,0.01,0.02,0.01c0.03,0.02,0.06,0.03,0.09,0.05
			c0,0,0,0,0,0c0.43,0.56,0.81,1.18,0.87,1.65c0,0.03,0.02,0.05,0.04,0.07c0,0,0,0,0,0c0.02,0.01,0.04,0.01,0.05,0l0.26-0.3
			c0.02-0.02,0.04-0.04,0.05-0.08c0.03-0.17-0.09-0.35-0.26-0.58c-0.08-0.11-0.19-0.24-0.3-0.37c0.59,0.29,1.16,0.5,1.69,0.62
			c0.07,0.42,0.33,1.44,1.2,1.66c0,0-0.02-1.02-0.68-1.57c0.21,0.02,0.41,0.03,0.61,0.02c0.11,0.39,0.44,1.32,1.24,1.36
			c0,0-0.14-1.06-0.85-1.42c0.24-0.04,0.46-0.11,0.68-0.2c0.14,0.34,0.55,1.14,1.24,0.96c0,0-0.27-0.98-0.92-1.12
			c0.14-0.08,0.28-0.16,0.42-0.27c0.06-0.04,0.11-0.09,0.16-0.14c0.15,0.34,0.52,0.98,1.12,0.82c0,0-0.26-0.95-0.89-1.04
			c0.17-0.19,0.33-0.39,0.47-0.61c0.18,0.26,0.62,0.77,1.08,0.38C60.04,125.89,59.65,125.09,59.12,125.23z"/>
		<g>
			<g>
				<path class="st26" d="M49.14,125.08c0-0.05,0-0.11-0.02-0.16c-0.01-0.05-0.04-0.1-0.07-0.14c-0.02-0.03-0.04-0.05-0.06-0.06
					c-0.02-0.01-0.03-0.01-0.04,0.01c-0.01,0.02-0.01,0.04,0,0.07c0.01,0.03,0.03,0.08,0.07,0.14c0.08,0.14,0.13,0.24,0.15,0.32
					c0.02,0.07,0,0.14-0.03,0.2c-0.04,0.06-0.1,0.08-0.17,0.06c-0.07-0.02-0.15-0.08-0.22-0.18c-0.06-0.07-0.1-0.15-0.12-0.22
					l-0.03,0.01l-0.08-0.1l0.09-0.26l0.1,0.11c0,0.07,0.01,0.13,0.02,0.19c0.02,0.06,0.04,0.11,0.08,0.15
					c0.03,0.04,0.06,0.07,0.08,0.08c0.03,0.01,0.04,0.01,0.06-0.01c0.01-0.01,0.01-0.04,0-0.07c-0.01-0.03-0.04-0.08-0.08-0.15
					c-0.08-0.13-0.12-0.23-0.14-0.3c-0.01-0.07,0-0.14,0.04-0.2c0.04-0.06,0.1-0.08,0.16-0.06c0.07,0.02,0.14,0.07,0.2,0.16
					c0.05,0.07,0.09,0.15,0.11,0.24l0.03-0.01l0.07,0.09l-0.1,0.2L49.14,125.08z"/>
				<path class="st26" d="M49.33,125.71l0.1-0.17c0.03-0.05,0.04-0.08,0.04-0.11c0-0.03-0.02-0.07-0.06-0.12l0.06-0.11l0.12,0.12
					l0.12,0.12l0.06,0.08l-0.25,0.43c-0.03,0.04-0.04,0.08-0.04,0.1c0,0.02,0.01,0.05,0.04,0.09l0.01,0.02l-0.06,0.11l-0.18-0.23
					l-0.18-0.23l0.06-0.1l0.02,0.02c0.03,0.03,0.06,0.05,0.07,0.05C49.29,125.77,49.31,125.75,49.33,125.71z M49.83,125.09
					c0.03,0.04,0.05,0.08,0.06,0.13c0.01,0.05,0,0.09-0.02,0.13c-0.02,0.03-0.05,0.05-0.08,0.05c-0.04,0-0.07-0.02-0.1-0.06
					c-0.03-0.04-0.05-0.08-0.06-0.13c-0.01-0.05,0-0.09,0.02-0.13c0.02-0.04,0.05-0.05,0.08-0.05
					C49.77,125.03,49.8,125.05,49.83,125.09z"/>
				<path class="st26" d="M49.8,126.28l0.09-0.19c0.02-0.05,0.03-0.09,0.03-0.11c0-0.03-0.03-0.06-0.06-0.11l0.05-0.11l0.11,0.1
					l0.11,0.1l0.07,0.07l-0.03,0.06c0.03,0.01,0.05,0.02,0.07,0.03c0.06,0.03,0.12,0.07,0.17,0.13c0.06,0.07,0.1,0.14,0.12,0.22
					c0.01,0.08,0,0.15-0.03,0.23l-0.12,0.24c-0.02,0.05-0.03,0.08-0.03,0.11c0,0.02,0.01,0.05,0.04,0.09l0.02,0.02l-0.05,0.11
					l-0.18-0.2l-0.18-0.2l0.05-0.11l0.01,0.01c0.02,0.02,0.04,0.03,0.06,0.02c0.01-0.01,0.03-0.03,0.05-0.08l0.11-0.23
					c0.01-0.03,0.02-0.06,0.02-0.08c0-0.03-0.01-0.05-0.03-0.07c-0.02-0.02-0.05-0.04-0.08-0.05c-0.02-0.01-0.05-0.01-0.08-0.02
					L50,126.5c-0.02,0.05-0.03,0.08-0.03,0.1c0,0.02,0.01,0.05,0.03,0.08l0.01,0.02l-0.05,0.11l-0.18-0.2l-0.18-0.2l0.05-0.11
					l0.02,0.02c0.03,0.03,0.06,0.05,0.07,0.04C49.76,126.35,49.78,126.33,49.8,126.28z"/>
				<path class="st26" d="M51.22,127.83c-0.06,0.05-0.12,0.06-0.19,0.04c-0.07-0.02-0.14-0.06-0.22-0.14
					c-0.1-0.1-0.17-0.21-0.2-0.34c-0.03-0.13-0.03-0.25,0.02-0.37c0.04-0.12,0.11-0.18,0.2-0.19c0.09-0.01,0.19,0.04,0.29,0.14
					c0.08,0.08,0.13,0.16,0.17,0.26c0.04,0.1,0.05,0.18,0.03,0.24c-0.01,0.03-0.04,0.05-0.06,0.06c-0.03,0-0.06-0.01-0.09-0.04
					c-0.03-0.03-0.05-0.07-0.06-0.11c-0.01-0.04-0.01-0.08,0.01-0.11c0.01-0.02,0.01-0.05,0.01-0.08c-0.01-0.03-0.02-0.05-0.05-0.08
					c-0.04-0.04-0.07-0.04-0.11-0.02c-0.04,0.02-0.07,0.08-0.1,0.16c-0.03,0.07-0.04,0.14-0.03,0.21c0.01,0.07,0.04,0.12,0.08,0.17
					c0.04,0.04,0.08,0.06,0.11,0.07c0.04,0.01,0.08,0,0.12-0.03L51.22,127.83z"/>
				<path class="st26" d="M51.64,128.5c-0.11-0.09-0.18-0.21-0.23-0.34c-0.04-0.13-0.05-0.26-0.01-0.38c0.04-0.12,0.1-0.2,0.18-0.22
					c0.08-0.02,0.18,0.01,0.28,0.1c0.1,0.08,0.16,0.18,0.2,0.3c0.04,0.12,0.04,0.23,0.01,0.34l-0.01,0.03l-0.42-0.37
					c-0.02,0.08-0.03,0.16-0.02,0.23c0.01,0.07,0.04,0.13,0.09,0.17c0.03,0.03,0.07,0.04,0.1,0.05c0.04,0,0.08-0.01,0.12-0.03
					l0.09,0.16c-0.05,0.05-0.11,0.07-0.18,0.07C51.78,128.59,51.71,128.56,51.64,128.5z M51.88,128.01c0.01-0.04,0.01-0.07,0-0.1
					c-0.01-0.04-0.03-0.07-0.06-0.1c-0.04-0.03-0.07-0.04-0.1-0.02c-0.01,0.01-0.03,0.02-0.04,0.04L51.88,128.01z"/>
				<path class="st26" d="M52.98,129.19l0.09-0.54c0.01-0.06,0.01-0.1,0-0.13c-0.01-0.02-0.05-0.06-0.11-0.1l-0.03-0.02l0.02-0.14
					c0.07,0.04,0.12,0.08,0.17,0.1c0.05,0.02,0.11,0.04,0.17,0.06l0.07,0.05l-0.15,0.88c-0.01,0.06-0.01,0.1,0.01,0.13
					c0.01,0.03,0.05,0.07,0.11,0.11l0.03,0.03l-0.02,0.14l-0.29-0.19l-0.29-0.19l0.02-0.14l0.03,0.02c0.06,0.03,0.1,0.05,0.12,0.04
					C52.96,129.28,52.98,129.25,52.98,129.19z"/>
				<path class="st26" d="M53.95,130.13c-0.09-0.05-0.16-0.11-0.22-0.19c-0.06-0.08-0.09-0.16-0.08-0.22c0-0.04,0.02-0.07,0.04-0.08
					c0.02-0.02,0.05-0.02,0.08,0c0.03,0.02,0.05,0.04,0.07,0.08c0.02,0.04,0.03,0.08,0.03,0.13c0,0.03,0.01,0.05,0.03,0.07
					c0.02,0.02,0.04,0.04,0.07,0.06c0.07,0.04,0.12,0.02,0.17-0.03c0.04-0.05,0.06-0.12,0.08-0.23c-0.07,0.03-0.16,0.01-0.26-0.04
					c-0.1-0.05-0.17-0.13-0.23-0.24c-0.06-0.11-0.08-0.22-0.07-0.34c0.01-0.13,0.06-0.21,0.14-0.25c0.08-0.04,0.19-0.03,0.31,0.04
					c0.14,0.07,0.24,0.18,0.3,0.32c0.06,0.14,0.08,0.31,0.07,0.5c-0.02,0.22-0.07,0.36-0.16,0.44
					C54.21,130.21,54.09,130.21,53.95,130.13z M54.23,129.37c0.01-0.07,0-0.14-0.03-0.2c-0.03-0.06-0.06-0.1-0.12-0.13
					c-0.05-0.03-0.1-0.03-0.13,0c-0.03,0.03-0.05,0.08-0.06,0.17c-0.01,0.08,0,0.15,0.03,0.2c0.02,0.06,0.06,0.1,0.11,0.12
					c0.05,0.03,0.1,0.03,0.13,0C54.2,129.5,54.22,129.45,54.23,129.37z"/>
				<path class="st26" d="M55.04,129.31c0.09,0.04,0.16,0.09,0.22,0.17c0.06,0.08,0.09,0.15,0.09,0.22c0,0.04-0.01,0.07-0.03,0.09
					c-0.02,0.02-0.05,0.02-0.08,0.01c-0.03-0.01-0.06-0.04-0.08-0.07c-0.02-0.03-0.03-0.07-0.03-0.11c0-0.04-0.01-0.07-0.02-0.09
					c-0.01-0.02-0.04-0.04-0.07-0.05c-0.07-0.03-0.13-0.01-0.17,0.06c-0.03,0.06-0.05,0.14-0.06,0.26c0.07-0.04,0.16-0.04,0.26,0
					c0.1,0.04,0.18,0.11,0.24,0.21c0.06,0.1,0.09,0.21,0.09,0.33c0,0.14-0.04,0.23-0.11,0.28c-0.07,0.05-0.17,0.05-0.29,0
					c-0.14-0.06-0.24-0.15-0.32-0.29c-0.07-0.14-0.11-0.3-0.1-0.51c0-0.22,0.04-0.38,0.13-0.47
					C54.78,129.26,54.89,129.25,55.04,129.31z M54.82,130.13c0,0.08,0.01,0.15,0.04,0.2c0.03,0.05,0.07,0.09,0.12,0.11
					c0.05,0.02,0.1,0.02,0.13-0.02c0.03-0.03,0.04-0.09,0.04-0.18c0-0.08-0.01-0.15-0.04-0.2c-0.03-0.05-0.07-0.09-0.12-0.11
					c-0.06-0.02-0.1-0.02-0.13,0.02C54.84,129.98,54.82,130.04,54.82,130.13z"/>
				<path class="st26" d="M55.91,130.92c-0.09-0.02-0.16-0.07-0.23-0.14c-0.07-0.07-0.1-0.14-0.11-0.21c0-0.04,0.01-0.07,0.03-0.1
					c0.02-0.02,0.05-0.03,0.08-0.02c0.03,0.01,0.06,0.03,0.08,0.06c0.02,0.03,0.04,0.08,0.05,0.13c0,0.03,0.02,0.05,0.03,0.07
					c0.02,0.02,0.04,0.03,0.07,0.04c0.07,0.02,0.12-0.01,0.15-0.08c0.03-0.06,0.04-0.15,0.04-0.26c-0.06,0.05-0.15,0.06-0.25,0.03
					c-0.1-0.03-0.18-0.09-0.25-0.18c-0.07-0.1-0.1-0.21-0.11-0.33c-0.01-0.14,0.02-0.24,0.1-0.3c0.07-0.07,0.17-0.08,0.29-0.05
					c0.14,0.04,0.24,0.12,0.32,0.25c0.08,0.13,0.12,0.3,0.13,0.5c0.01,0.23-0.02,0.4-0.09,0.5
					C56.17,130.93,56.06,130.96,55.91,130.92z M56.06,130.06c0-0.08-0.02-0.14-0.06-0.2c-0.03-0.05-0.08-0.09-0.13-0.1
					c-0.05-0.02-0.09,0-0.12,0.03c-0.03,0.04-0.04,0.1-0.03,0.19c0,0.08,0.02,0.15,0.05,0.2c0.03,0.05,0.07,0.08,0.12,0.1
					c0.05,0.01,0.09,0,0.12-0.04C56.06,130.2,56.07,130.14,56.06,130.06z"/>
			</g>
		</g>
		<g>
			<path class="st26" d="M50.09,108.46c-0.01,0.11,0,0.19,0.02,0.24c0.02,0.05,0.07,0.09,0.14,0.13l0.04,0.02l-0.01,0.27l-0.33-0.16
				l-0.33-0.16l0.01-0.27l0.04,0.02c0.07,0.03,0.12,0.03,0.14,0c0.02-0.03,0.04-0.09,0.04-0.21l0.06-1.12
				c0.01-0.11,0-0.19-0.02-0.24c-0.02-0.05-0.07-0.09-0.14-0.13l-0.04-0.02l0.01-0.27l0.38,0.18l0.39,0.18l0.27,1.57l0,0l0.43-1.24
				l0.39,0.19l0.39,0.19l-0.01,0.27l-0.04-0.02c-0.07-0.03-0.12-0.03-0.14,0c-0.02,0.03-0.04,0.1-0.04,0.21l-0.06,1.12
				c-0.01,0.11,0,0.19,0.02,0.24c0.02,0.05,0.07,0.09,0.14,0.13l0.04,0.03l-0.01,0.27l-0.43-0.2l-0.43-0.2l0.01-0.27l0.04,0.01
				c0.07,0.03,0.12,0.03,0.14,0c0.02-0.03,0.04-0.09,0.04-0.2l0.06-1.15l0,0l-0.52,1.51l-0.14-0.06l-0.14-0.07l-0.35-1.92l0,0
				L50.09,108.46z"/>
			<path class="st26" d="M52.29,109.56l0.11-1.09c0.01-0.11,0.01-0.19-0.01-0.23c-0.02-0.05-0.06-0.09-0.14-0.14l-0.04-0.03
				l0.03-0.26l0.44,0.25l0.44,0.25l-0.03,0.26l-0.05-0.02c-0.07-0.03-0.12-0.04-0.15-0.02c-0.03,0.02-0.04,0.09-0.06,0.2l-0.11,1.09
				c-0.01,0.11-0.01,0.19,0.01,0.23c0.02,0.05,0.06,0.1,0.14,0.14l0.04,0.03l-0.03,0.26l-0.44-0.25l-0.44-0.25l0.03-0.26l0.04,0.02
				c0.07,0.03,0.12,0.04,0.15,0.02C52.26,109.74,52.28,109.67,52.29,109.56z"/>
			<path class="st26" d="M53.6,110.32c-0.02,0.11-0.02,0.18,0,0.23c0.02,0.05,0.06,0.1,0.13,0.15l0.04,0.03l-0.04,0.26l-0.33-0.21
				l-0.33-0.21l0.04-0.25l0.04,0.02c0.07,0.04,0.12,0.05,0.15,0.03c0.03-0.02,0.05-0.08,0.06-0.19l0.16-1.06
				c0.02-0.11,0.02-0.18,0-0.23c-0.02-0.05-0.06-0.1-0.13-0.15l-0.04-0.03l0.04-0.26l0.36,0.23l0.36,0.23l0.38,1.59l0.11-0.7
				c0.02-0.1,0.02-0.18,0-0.23c-0.02-0.05-0.06-0.1-0.13-0.15l-0.04-0.03l0.04-0.26l0.33,0.21l0.33,0.21l-0.04,0.26l-0.04-0.02
				c-0.07-0.04-0.12-0.05-0.15-0.03c-0.03,0.02-0.05,0.08-0.06,0.19l-0.24,1.59l-0.16-0.1l-0.16-0.1l-0.5-2.14L53.6,110.32z"/>
			<path class="st26" d="M55.76,112.46c-0.23-0.17-0.39-0.41-0.5-0.72c-0.11-0.31-0.12-0.61-0.06-0.91
				c0.07-0.32,0.21-0.52,0.41-0.61c0.2-0.09,0.42-0.05,0.65,0.13c0.16,0.12,0.29,0.27,0.39,0.46l0.05-0.06l0.16,0.12l0,0.78
				l-0.19-0.05c-0.05-0.23-0.11-0.42-0.18-0.57c-0.07-0.15-0.15-0.27-0.25-0.34c-0.12-0.09-0.23-0.09-0.33-0.01
				c-0.1,0.09-0.18,0.25-0.24,0.49c-0.05,0.23-0.06,0.44-0.01,0.63c0.04,0.19,0.13,0.33,0.26,0.43l0,0c0.11,0.08,0.21,0.1,0.31,0.05
				c0.02-0.01,0.04-0.03,0.06-0.07c0.02-0.03,0.03-0.07,0.04-0.1c0.01-0.06,0.01-0.11,0-0.14c-0.01-0.04-0.06-0.1-0.13-0.16
				l-0.04-0.04l0.06-0.25l0.39,0.3l0.39,0.3l-0.06,0.24l-0.04-0.02c-0.06-0.04-0.11-0.05-0.13-0.03c-0.03,0.02-0.05,0.08-0.07,0.18
				l-0.13,0.56l-0.27-0.2l-0.02-0.22C56.12,112.65,55.94,112.6,55.76,112.46z"/>
			<path class="st26" d="M57.23,112.96l0.3-0.95c0.03-0.09,0.04-0.17,0.03-0.21c-0.01-0.05-0.05-0.11-0.11-0.17l-0.04-0.04
				l0.07-0.23l0.41,0.36l0.45,0.4c0.27,0.24,0.45,0.51,0.54,0.81c0.1,0.3,0.09,0.6,0,0.9c-0.1,0.31-0.25,0.48-0.44,0.51
				c-0.2,0.04-0.43-0.07-0.7-0.31l-0.45-0.41l-0.41-0.36l0.07-0.23l0.04,0.03c0.07,0.05,0.12,0.07,0.15,0.06
				C57.17,113.11,57.2,113.06,57.23,112.96z M57.63,113.37c-0.02,0.07-0.03,0.13-0.02,0.17c0.01,0.04,0.05,0.09,0.11,0.14l0.02,0.02
				c0.15,0.13,0.28,0.17,0.4,0.12c0.12-0.05,0.22-0.18,0.29-0.4c0.07-0.23,0.09-0.44,0.05-0.63c-0.04-0.19-0.14-0.35-0.3-0.49
				l-0.01-0.01c-0.06-0.06-0.11-0.08-0.13-0.07c-0.03,0.01-0.05,0.05-0.08,0.12L57.63,113.37z"/>
			<path class="st26" d="M59.08,114.66l1.05-0.81l0.17,0.18l0.17,0.18l-0.11,1.8c-0.01,0.12,0,0.21,0.01,0.26
				c0.01,0.06,0.05,0.11,0.1,0.18l0.03,0.04l-0.09,0.21l-0.4-0.42l-0.4-0.42l0.09-0.21l0.05,0.04c0.08,0.07,0.13,0.1,0.15,0.09
				c0.03-0.01,0.04-0.08,0.05-0.2l0.02-0.24l-0.5-0.53l-0.14,0.11c-0.07,0.05-0.1,0.1-0.1,0.15c0,0.04,0.04,0.11,0.12,0.2l0.05,0.05
				l-0.09,0.21l-0.34-0.36l-0.34-0.36l0.09-0.21l0.04,0.03c0.05,0.05,0.1,0.07,0.15,0.07C58.97,114.73,59.02,114.71,59.08,114.66z
				 M59.65,114.67l0.34,0.36l0.05-0.69l0,0L59.65,114.67z"/>
			<path class="st26" d="M60.78,116.85c-0.05-0.33-0.01-0.61,0.12-0.84c0.14-0.24,0.34-0.35,0.58-0.33c0.24,0.02,0.48,0.18,0.7,0.46
				c0.22,0.28,0.36,0.58,0.41,0.91c0.05,0.33,0.01,0.61-0.12,0.84c-0.14,0.24-0.34,0.35-0.58,0.33c-0.24-0.03-0.48-0.18-0.7-0.46
				C60.97,117.48,60.83,117.18,60.78,116.85z M61.69,117.7c0.13-0.02,0.25-0.13,0.36-0.31c0.11-0.18,0.16-0.36,0.16-0.54
				c0-0.18-0.06-0.34-0.17-0.48c-0.12-0.14-0.24-0.21-0.37-0.18c-0.13,0.02-0.25,0.13-0.36,0.31c-0.11,0.18-0.16,0.36-0.15,0.54
				c0,0.18,0.06,0.34,0.17,0.48C61.44,117.67,61.56,117.73,61.69,117.7z"/>
		</g>
		<g>
			<path class="st26" d="M50.48,111.27l0.02-0.61c0-0.06,0-0.1-0.01-0.13c-0.01-0.02-0.04-0.05-0.07-0.07l-0.02-0.01l0-0.15
				l0.24,0.11l0.24,0.11l-0.01,0.15l-0.02-0.01c-0.04-0.01-0.06-0.01-0.08,0c-0.01,0.01-0.02,0.05-0.02,0.11l-0.01,0.18l0.35,0.15
				l0.01-0.17c0-0.06,0-0.11-0.01-0.13c-0.01-0.03-0.04-0.05-0.08-0.07l-0.02-0.01l0-0.15l0.24,0.11l0.24,0.11l-0.01,0.15
				l-0.02-0.01c-0.04-0.01-0.06-0.01-0.08,0c-0.01,0.01-0.02,0.05-0.02,0.11l-0.02,0.61c0,0.06,0,0.1,0.01,0.13
				c0.01,0.03,0.04,0.05,0.08,0.07l0.02,0.01L51.42,112l-0.24-0.11l-0.24-0.1l0-0.15l0.02,0.01c0.04,0.01,0.06,0.01,0.08,0
				c0.01-0.01,0.02-0.05,0.02-0.11l0.01-0.27l-0.35-0.15l-0.01,0.27c0,0.06,0,0.1,0.01,0.13c0.01,0.03,0.04,0.05,0.07,0.07
				l0.02,0.01l-0.01,0.15l-0.24-0.11l-0.24-0.11l0-0.15l0.02,0.01c0.04,0.01,0.06,0.01,0.08,0
				C50.47,111.37,50.48,111.33,50.48,111.27z"/>
			<path class="st26" d="M51.65,111.8l0.04-0.6c0-0.06,0-0.1-0.01-0.13c-0.01-0.03-0.04-0.05-0.08-0.08l-0.02-0.02l0.01-0.15
				l0.24,0.12l0.24,0.12l-0.01,0.15l-0.02-0.01c-0.04-0.02-0.07-0.02-0.08,0c-0.01,0.01-0.02,0.05-0.03,0.11l-0.04,0.6
				c0,0.06,0,0.1,0.01,0.13c0.01,0.03,0.04,0.05,0.08,0.07l0.02,0.02l-0.01,0.15l-0.24-0.12l-0.24-0.12l0.01-0.15l0.03,0.01
				c0.04,0.02,0.07,0.02,0.08,0C51.64,111.9,51.64,111.86,51.65,111.8z"/>
			<path class="st26" d="M52.54,112.62c-0.13-0.07-0.23-0.19-0.3-0.35c-0.07-0.16-0.1-0.33-0.08-0.51c0.02-0.19,0.08-0.31,0.18-0.39
				c0.1-0.07,0.21-0.08,0.34,0c0.09,0.05,0.17,0.12,0.23,0.21l0.02-0.04l0.09,0.05l0.04,0.44l-0.1-0.01
				c-0.04-0.12-0.08-0.22-0.13-0.3c-0.05-0.08-0.1-0.13-0.15-0.16c-0.07-0.04-0.13-0.03-0.17,0.03c-0.05,0.06-0.08,0.16-0.09,0.3
				c-0.01,0.14,0,0.25,0.03,0.36c0.03,0.1,0.09,0.17,0.16,0.21l0,0c0.06,0.03,0.11,0.03,0.16-0.01c0.01-0.01,0.02-0.02,0.03-0.04
				c0.01-0.02,0.01-0.04,0.01-0.06c0-0.04,0-0.06-0.01-0.08c-0.01-0.02-0.04-0.05-0.07-0.07l-0.02-0.02l0.01-0.14l0.22,0.12
				l0.22,0.12l-0.01,0.14l-0.02-0.01c-0.04-0.02-0.06-0.02-0.07,0c-0.01,0.01-0.02,0.05-0.03,0.11l-0.03,0.33l-0.15-0.08l-0.02-0.12
				C52.74,112.69,52.64,112.68,52.54,112.62z"/>
			<path class="st26" d="M53.33,112.72l0.08-0.58c0.01-0.06,0.01-0.1,0-0.13c-0.01-0.03-0.03-0.05-0.07-0.08l-0.02-0.02l0.02-0.14
				l0.23,0.15l0.23,0.15l-0.02,0.14l-0.02-0.01c-0.04-0.02-0.07-0.02-0.08-0.01c-0.01,0.01-0.03,0.05-0.03,0.1l-0.02,0.17l0.34,0.22
				l0.02-0.17c0.01-0.06,0.01-0.1,0-0.13c-0.01-0.03-0.03-0.05-0.07-0.08l-0.02-0.02l0.02-0.14l0.23,0.15l0.23,0.15l-0.02,0.14
				l-0.02-0.01c-0.04-0.02-0.07-0.02-0.08-0.01c-0.01,0.01-0.03,0.05-0.03,0.1l-0.08,0.58c-0.01,0.06-0.01,0.1,0,0.13
				c0.01,0.02,0.03,0.05,0.07,0.08l0.02,0.02l-0.02,0.14l-0.23-0.15l-0.23-0.15l0.02-0.14l0.02,0.01c0.04,0.02,0.07,0.02,0.08,0.01
				c0.01-0.01,0.03-0.05,0.03-0.1l0.04-0.26l-0.34-0.22l-0.04,0.26c-0.01,0.06-0.01,0.1,0,0.13c0.01,0.03,0.03,0.05,0.07,0.08
				l0.02,0.02l-0.02,0.14l-0.23-0.15l-0.23-0.15l0.02-0.14l0.02,0.01c0.04,0.02,0.06,0.02,0.08,0.01
				C53.31,112.81,53.32,112.78,53.33,112.72z"/>
			<path class="st26" d="M55.61,113.75c-0.02-0.11-0.05-0.2-0.09-0.28c-0.04-0.08-0.09-0.13-0.14-0.17
				c-0.05-0.03-0.08-0.05-0.12-0.05c-0.03,0-0.05,0.02-0.06,0.06c-0.01,0.03,0.01,0.06,0.03,0.11c0.03,0.04,0.09,0.11,0.17,0.2
				c0.13,0.13,0.21,0.24,0.25,0.33c0.04,0.09,0.05,0.18,0.03,0.28c-0.02,0.11-0.08,0.18-0.17,0.2c-0.09,0.02-0.18-0.01-0.29-0.09
				c-0.09-0.07-0.16-0.16-0.22-0.26l-0.03,0.06l-0.08-0.06l-0.02-0.49l0.11,0.04c0.01,0.11,0.04,0.22,0.09,0.32
				c0.05,0.1,0.11,0.18,0.18,0.23c0.05,0.04,0.1,0.06,0.13,0.05c0.04,0,0.06-0.03,0.07-0.08c0.01-0.03,0-0.07-0.03-0.11
				c-0.03-0.04-0.08-0.11-0.17-0.2c-0.13-0.13-0.21-0.25-0.25-0.33c-0.04-0.09-0.05-0.18-0.03-0.28c0.02-0.1,0.07-0.16,0.15-0.19
				c0.08-0.02,0.17,0,0.26,0.08c0.08,0.06,0.14,0.14,0.19,0.24l0.03-0.04l0.08,0.06l0.01,0.4L55.61,113.75z"/>
			<path class="st26" d="M56.68,115.1c-0.07,0.08-0.14,0.12-0.23,0.12c-0.09,0-0.18-0.04-0.28-0.13c-0.13-0.11-0.23-0.25-0.29-0.43
				c-0.06-0.18-0.07-0.35-0.03-0.51c0.05-0.17,0.12-0.28,0.23-0.31c0.11-0.04,0.23,0,0.37,0.11c0.08,0.06,0.14,0.14,0.2,0.24
				l0.02-0.02l0.08,0.06l0.02,0.47l-0.11-0.04c-0.01-0.13-0.04-0.24-0.07-0.33c-0.04-0.09-0.08-0.16-0.13-0.2
				c-0.07-0.06-0.14-0.07-0.2-0.03c-0.06,0.04-0.11,0.12-0.14,0.25c-0.03,0.13-0.04,0.24-0.01,0.36c0.02,0.11,0.08,0.2,0.15,0.26
				c0.06,0.05,0.12,0.07,0.18,0.07c0.06,0,0.12-0.03,0.18-0.08L56.68,115.1z"/>
			<path class="st26" d="M56.87,115.33l0.17-0.51c0.02-0.05,0.02-0.09,0.02-0.12c-0.01-0.03-0.03-0.06-0.06-0.1l-0.02-0.02
				l0.04-0.12l0.22,0.2l0.22,0.2l-0.04,0.12l-0.02-0.02c-0.04-0.03-0.06-0.04-0.08-0.03c-0.02,0.01-0.03,0.03-0.05,0.09l-0.05,0.15
				l0.32,0.3l0.05-0.15c0.02-0.05,0.02-0.09,0.02-0.12c0-0.03-0.03-0.06-0.06-0.09l-0.02-0.02l0.04-0.12l0.22,0.2l0.22,0.2
				l-0.04,0.12l-0.02-0.02c-0.04-0.03-0.06-0.04-0.08-0.03c-0.02,0.01-0.03,0.04-0.05,0.09l-0.17,0.51
				c-0.02,0.05-0.02,0.09-0.02,0.12c0.01,0.03,0.03,0.06,0.06,0.09l0.02,0.02l-0.04,0.12l-0.22-0.2l-0.22-0.2l0.04-0.12l0.02,0.02
				c0.04,0.03,0.06,0.04,0.08,0.04c0.02-0.01,0.03-0.03,0.05-0.09l0.08-0.23l-0.32-0.3l-0.08,0.23c-0.02,0.05-0.02,0.09-0.02,0.12
				c0.01,0.03,0.03,0.06,0.06,0.1l0.02,0.02l-0.04,0.12l-0.22-0.2l-0.22-0.2l0.04-0.12l0.02,0.02c0.04,0.03,0.06,0.04,0.08,0.03
				C56.84,115.41,56.86,115.38,56.87,115.33z"/>
			<path class="st26" d="M57.94,116.51c-0.04-0.18-0.04-0.34,0.02-0.48c0.06-0.15,0.16-0.23,0.29-0.24
				c0.13-0.01,0.26,0.05,0.39,0.19c0.13,0.13,0.21,0.29,0.26,0.47c0.05,0.18,0.04,0.34-0.02,0.48c-0.06,0.15-0.16,0.23-0.29,0.24
				c-0.13,0.01-0.26-0.05-0.39-0.19C58.07,116.84,57.98,116.69,57.94,116.51z M58.46,116.9c0.07-0.03,0.12-0.1,0.17-0.21
				c0.05-0.11,0.06-0.22,0.05-0.32c-0.01-0.1-0.05-0.19-0.11-0.25c-0.07-0.07-0.14-0.09-0.2-0.07c-0.07,0.03-0.13,0.1-0.17,0.21
				c-0.05,0.11-0.06,0.22-0.05,0.32c0.01,0.1,0.05,0.19,0.11,0.25C58.32,116.9,58.39,116.92,58.46,116.9z"/>
			<path class="st26" d="M58.95,117.58c-0.04-0.18-0.02-0.34,0.05-0.47c0.07-0.14,0.17-0.21,0.31-0.2c0.13,0,0.26,0.08,0.39,0.23
				c0.12,0.14,0.2,0.31,0.24,0.49c0.04,0.18,0.02,0.34-0.05,0.47c-0.07,0.14-0.17,0.21-0.31,0.2c-0.13,0-0.26-0.08-0.39-0.23
				C59.06,117.92,58.98,117.76,58.95,117.58z M59.46,118.02c0.07-0.02,0.13-0.08,0.19-0.19c0.05-0.1,0.08-0.2,0.07-0.31
				c0-0.1-0.04-0.19-0.1-0.26c-0.06-0.07-0.13-0.1-0.2-0.09c-0.07,0.02-0.13,0.08-0.19,0.19c-0.05,0.1-0.08,0.2-0.07,0.3
				c0,0.1,0.04,0.19,0.1,0.26C59.32,118,59.39,118.03,59.46,118.02z"/>
			<path class="st26" d="M59.72,118.66l0.06-0.1l0.02,0.02c0.03,0.04,0.06,0.06,0.08,0.06c0.02,0,0.04-0.02,0.07-0.06l0.26-0.41
				c0.03-0.04,0.04-0.07,0.04-0.1c0-0.03-0.02-0.06-0.05-0.11l-0.02-0.03l0.06-0.1l0.2,0.26l0.2,0.26l-0.06,0.1l-0.02-0.02
				c-0.03-0.04-0.06-0.06-0.08-0.06c-0.02,0-0.04,0.02-0.07,0.06l-0.28,0.43c-0.02,0.03-0.03,0.06-0.03,0.08
				c0,0.02,0.02,0.05,0.05,0.09c0.06,0.07,0.12,0.12,0.18,0.14c0.07,0.03,0.15,0.03,0.25,0.01l0.05,0.15l-0.15,0.07l-0.15,0.07
				l-0.32-0.41L59.72,118.66z"/>
		</g>
		<g>
			<g>
				<path class="st26" d="M53.06,118.72c-0.02,0.02,0.04,0.21,0.04,0.21s0.02,0.06,0.03,0.09c0.03,0.09,0.12,0.36,0.01,0.52
					c0,0-0.02,0.03-0.06,0.04c-0.06,0.02-0.24,0.05-0.39-0.25c0,0-0.24-0.39-0.06-0.71c0,0,0.22-0.44,0.38-0.63
					c0,0,0.13-0.17,0.12-0.22c0,0,0-0.16-0.31,0.08c0.47-0.34-0.96,0.55-1.22,1.41c0,0-0.01,0.07,0.04,0.07c0,0,0.01,0,0.02-0.01
					c0.01-0.01,0.03-0.04,0.06-0.06c0.02-0.03,0.2-0.2,0.34-0.16c0,0,0.49,0.08,0.54,0.66c0.01,0.04,0,0.11-0.01,0.17
					c0,0.02-0.02,0.12-0.07,0.15c-0.02,0.01-0.05,0.03-0.11,0.01c-0.08-0.04-0.19-0.14-0.25-0.19c0,0-0.09-0.08-0.05,0.03
					c0.01,0.02,0.03,0.04,0.04,0.07c0,0,0.22,0.29,0.26,0.47c0,0,0.09,0.26-0.01,0.39c-0.03,0.04-0.19,0.06-0.33-0.14
					c-0.5-0.84-0.51-0.86-0.54-0.9c0,0-0.01-0.01-0.02-0.01c-0.01,0-0.01,0.02,0,0.04c0,0.01,0.01,0.04,0.02,0.07
					c0,0,0.47,1.49,0.55,1.99c0.12,0.63,0.15,0.97,0.02,2.12l0.25,0.2c0,0,0.24-1.59,0.6-1.41c0,0,0.26,0.09,0.29,0.51
					c0.04,0.36,0.04,1.13,0.01,1.55l0.23,0.16c0,0,0.21-1.16,0.49-1.78c0,0,0.26-0.57,0.56-0.85c0,0,0.07-0.06,0.05-0.1
					c-0.04-0.06-0.29-0.01-0.29-0.01s0.18-0.63,0.19-0.72c0,0,1.74,2.11,1.89,2.3c0.03,0.04,0.08,0.1,0.11,0.13
					c0.03,0.03,0.05,0.03,0.06,0c0.03-0.17-1.54-2.64-1.85-3.16c0,0,1.05-4.33,1.14-4.92c0.01-0.08-0.02-0.18-0.08-0.15
					c-0.02,0.01-0.03,0.02-0.04,0.06c-0.1,0.33-1.13,3.47-1.87,3.92c0,0-0.18-0.24-0.19-0.26c-0.41-0.57-0.34-0.48-0.47-0.66
					C53.07,118.65,53.06,118.72,53.06,118.72z M53.53,122.64c-0.02,0.04-0.1,0.03-0.1,0.03c-0.06-0.02-0.08-0.04-0.1-0.06
					c-0.24-0.25,0.02-0.76,0.02-0.76c0.2,0.21,0.24,0.61,0.24,0.61C53.57,122.54,53.56,122.61,53.53,122.64z M53.97,122.35
					c-0.37-0.4-0.39-0.85-0.39-1.21c0,0,0.03-0.41,0.1-0.42c0.04-0.01,0.09,0.06,0.09,0.06s0.14,0.16,0.32,0.37l-0.02,1.14
					L53.97,122.35z"/>
			</g>
		</g>
	</g>
	<circle class="st29" cx="89.24" cy="112.53" r="7.5"/>
	<circle class="st29" cx="100.15" cy="133.88" r="6.13"/>
	<rect x="89.47" y="109.57" transform="matrix(0.866 -0.5 0.5 0.866 -48.7186 63.6792)" class="st29" width="10" height="26.36"/>
	<rect x="80.38" y="131.38" class="st29" width="21.81" height="7.73"/>
	<polygon class="st29" points="68.83,139.25 71.15,126.81 75.36,127.59 83.36,130.37 81.5,140.33 73.03,140.03 	"/>
</g>
</svg>
