<?xml version="1.0" encoding="utf-8"?>
<!-- Generator: Adobe Illustrator 24.2.3, SVG Export Plug-In . SVG Version: 6.00 Build 0)  -->
<svg version="1.1" id="圖層_1" xmlns="http://www.w3.org/2000/svg" xmlns:xlink="http://www.w3.org/1999/xlink" x="0px" y="0px"
	 viewBox="0 0 1524 327.4" style="enable-background:new 0 0 1524 327.4;" xml:space="preserve">
<style type="text/css">
	.st0{fill:#009CDB;}
	.st1{fill:#FAA75D;}
	.st2{fill:#FDBA54;}
	.st3{fill:#FFFFFF;}
</style>
<g>
	<path class="st0" d="M0,41.4h122.6l47.3,156.7l46.9-156.7h122.5V299H263V102.6L204.2,299h-69.1L76.3,102.6V299H0V41.4z"/>
	<path class="st1" d="M1059.4,41.4h93.4V299h-93.4L1059.4,41.4L1059.4,41.4z"/>
	<path class="st1" d="M1379.9,205.7v-53.6H1524V262c-27.6,16-52,27-73.2,32.8c-21.2,5.8-46.3,8.7-75.4,8.7c-35.8,0-65-5.2-87.6-15.6
		c-22.6-10.4-40.1-25.9-52.5-46.6c-12.4-20.6-18.6-44.3-18.6-71c0-28.1,6.8-52.6,20.4-73.4c13.6-20.8,33.5-36.6,59.7-47.3
		c20.4-8.3,47.9-12.5,82.5-12.5c33.3,0,58.3,2.6,74.8,7.7c16.5,5.2,30.2,13.2,41.2,24c10.9,10.8,19.1,24.6,24.6,41.2l-89.9,13.7
		c-3.7-9.7-10-17.2-18.8-22.3s-20.1-7.7-33.9-7.7c-20.4,0-36.7,6.1-48.9,18.2c-12.1,12.1-18.2,31.3-18.2,57.5
		c0,27.9,6.1,47.8,18.4,59.7s29.4,17.9,51.3,17.9c10.4,0,20.4-1.3,29.8-3.9s20.3-7,32.5-13.2v-24.2L1379.9,205.7L1379.9,205.7z"/>
	<path class="st2" d="M981.8,77.7l-87.1,48.9l-1-18.3c-2.7-6.7-6.6-11.8-11.8-15.5c-7.5-5.3-17.8-7.9-31-7.9c-10.8,0-19,2-24.5,5.9
		c-5.5,3.9-8.2,8.7-8.2,14.3c0,4.1,2.3,7.8,6.8,11.1c4.4,3.4,14.8,6.6,31.3,9.5c40.8,7.5,69.9,15.1,87.6,22.8
		c17.6,7.7,30.5,17.2,38.5,28.5c8,11.4,12,24.1,12,38.1c0,16.5-5.3,31.7-16,45.7c-10.7,13.9-25.7,24.5-44.9,31.7
		c-19.2,7.2-43.4,10.8-72.7,10.8c-19.3,0-36.4-1.2-51.2-3.6l0.1,27.6L684.7,263l124.7-62l0,8.2c1.9,12.2,5.8,21.6,11.7,28
		c9.6,10.4,23.3,15.6,41.2,15.6c13.3,0,23.6-2.7,30.8-8c7.2-5.3,10.8-11.5,10.8-18.5c0-6.7-3.4-12.6-10.3-17.9s-22.8-10.2-47.8-14.9
		c-40.9-7.9-70-18.3-87.5-31.3c-17.6-13-26.3-29.6-26.3-49.7c0-13.2,4.5-25.7,13.5-37.5c9-11.8,22.5-21,40.5-27.8
		c18-6.7,42.8-10.1,74.2-10.1c10.7,0,20.6,0.5,29.9,1.4l-2-38l128,58.1L981.8,77.7"/>
	<path class="st0" d="M675.3,119.5c-4.9-15.7-12.9-29.5-23.9-41.3c-11-11.8-24.9-20.9-41.7-27.2c-16.8-6.3-38.9-9.5-66.2-9.5H405
		V299h138.5c16.6,0,35.1-2.3,55.6-7c15-3.4,29-10.2,42-20.5c13-10.2,23.2-23,30.6-38.1c7.3-15.2,11-36.5,11-64.1
		C682.7,151.8,680.2,135.2,675.3,119.5z M585.3,251.4c-13,12.3-30.5,19.8-49.8,19.8c-40.1,0-72.6-32.5-72.6-72.6v-61
		c0-40.1,32.5-72.6,72.6-72.6s72.6,32.5,72.6,72.6v61c0,8.2-1.4,16.1-3.9,23.4l21.4,28.6l4.3,5.8l3.5,4.7L585.3,251.4z"/>
	<path class="st3" d="M585.3,251.4c-13,12.3-30.5,19.8-49.8,19.8c-40.1,0-72.6-32.5-72.6-72.6v-61c0-40.1,32.5-72.6,72.6-72.6
		s72.6,32.5,72.6,72.6v61c0,8.2-1.4,16.1-3.9,23.4l21.4,28.6l4.3,5.8l3.5,4.7L585.3,251.4z"/>
</g>
</svg>
