<?xml version="1.0" encoding="utf-8"?>
<!-- Generator: Adobe Illustrator 24.2.3, SVG Export Plug-In . SVG Version: 6.00 Build 0)  -->
<svg version="1.1" id="圖層_1" xmlns="http://www.w3.org/2000/svg"
  xmlns:xlink="http://www.w3.org/1999/xlink" x="0px" y="0px"
  viewBox="0 0 1523.99 327.42" style="enable-background:new 0 0 1523.99 327.42;"
  xml:space="preserve">
<style type="text/css">
	.st0{fill:#009CDB;}
	.st1{fill:#FAA75D;}
	.st2{fill:#FDBA54;}
</style>
<g>
	<path class="st0" d="M0,41.08h122.61l47.28,156.93l46.95-156.93h122.54V299h-76.35V102.3L204.2,298.99h-69.11L76.35,102.3v196.69H0
		V41.08z"/>
	<path class="st1" d="M1059.41,41.08h93.44V299h-93.44L1059.41,41.08L1059.41,41.08z"/>
	<path class="st1" d="M1379.93,205.57v-53.66h144.06v109.96c-27.58,16.07-51.97,27.01-73.16,32.81c-21.2,5.81-46.34,8.71-75.43,8.71
		c-35.81,0-65-5.22-87.57-15.66s-40.06-25.98-52.48-46.62c-12.42-20.64-18.63-44.33-18.63-71.08c0-28.15,6.79-52.63,20.37-73.45
		s33.48-36.62,59.68-47.41c20.44-8.33,47.95-12.49,82.53-12.49c33.34,0,58.27,2.58,74.81,7.74c16.53,5.16,30.25,13.17,41.16,24.01
		c10.91,10.85,19.11,24.6,24.59,41.26l-89.94,13.72c-3.7-9.73-9.98-17.18-18.83-22.34c-8.85-5.16-20.14-7.74-33.86-7.74
		c-20.45,0-36.74,6.07-48.88,18.21s-18.21,31.35-18.21,57.62c0,27.92,6.14,47.85,18.42,59.82c12.28,11.96,29.4,17.94,51.35,17.94
		c10.43,0,20.37-1.29,29.84-3.87s20.3-6.98,32.52-13.19v-24.28L1379.93,205.57L1379.93,205.57z"/>
	<path class="st2" d="M981.81,77.4l34.24-19.26L888.01,0l2,38.11c-9.26-0.94-19.19-1.42-29.85-1.42c-31.42,0-56.15,3.37-74.19,10.12
		s-31.56,16.01-40.54,27.8c-8.99,11.79-13.48,24.31-13.48,37.56c0,20.17,8.78,36.77,26.34,49.79
		c17.42,13.02,46.58,23.46,87.47,31.32c24.97,4.69,40.88,9.68,47.75,14.95c6.86,5.28,10.29,11.26,10.29,17.95
		c0,7.04-3.6,13.23-10.8,18.56c-7.2,5.34-17.46,8.01-30.77,8.01c-17.84,0-31.56-5.22-41.16-15.66c-5.88-6.43-9.79-15.78-11.71-28.04
		l-0.02-8.21l-78.9,39.28l-10.6,5.28l-35.16,17.51l124.94,64.51l-0.06-27.59c14.85,2.39,31.92,3.59,51.23,3.59
		c29.22,0,53.44-3.61,72.65-10.82c19.21-7.21,34.16-17.8,44.87-31.76c10.7-13.96,16.05-29.2,16.05-45.74
		c-0.01-14.1-4.02-26.83-12.04-38.2c-8.03-11.38-20.86-20.91-38.49-28.59s-46.82-15.28-87.57-22.78c-16.46-2.93-26.89-6.1-31.28-9.5
		c-4.53-3.28-6.79-6.98-6.79-11.08c0-5.63,2.74-10.41,8.23-14.34s13.65-5.89,24.49-5.89c13.17,0,23.49,2.64,30.97,7.92
		c5.18,3.66,9.12,8.83,11.83,15.52l0.96,18.25L981.81,77.4"/>
	<path class="st0" d="M675.26,119.19c-4.94-15.72-12.9-29.5-23.87-41.34C640.41,66,626.51,56.91,609.71,50.58
		c-16.81-6.33-38.87-9.5-66.17-9.5h-138.5V299h138.51c16.6,0,35.12-2.35,55.57-7.04c14.95-3.4,28.95-10.23,41.98-20.5
		c13.03-10.26,23.22-22.99,30.56-38.18c7.34-15.19,11.01-36.56,11.01-64.13C682.67,151.56,680.2,134.91,675.26,119.19z
		 M583.34,231.3c-10.88,12.78-27.05,20.91-45.15,20.91c-32.75,0-59.3-26.55-59.3-59.3v-49.87c0-32.75,26.55-59.3,59.3-59.3
		s59.3,26.55,59.3,59.3v49.87c0,8.68-1.91,16.89-5.26,24.32c8.82,15.13,29.21,23.18,29.21,23.18
		C602.6,240.41,590.56,235.72,583.34,231.3z"/>
</g>
</svg>