<?xml version="1.0" encoding="utf-8"?>
<!-- Generator: Adobe Illustrator 24.2.3, SVG Export Plug-In . SVG Version: 6.00 Build 0)  -->
<svg version="1.1" id="圖層_1" xmlns="http://www.w3.org/2000/svg" xmlns:xlink="http://www.w3.org/1999/xlink" x="0px" y="0px"
	 viewBox="0 0 839.3 326.8" style="enable-background:new 0 0 839.3 326.8;" xml:space="preserve">
<style type="text/css">
	.st0{fill:#009CDB;}
	.st1{fill:#FAA75D;}
	.st2{fill:#FDBA54;}
</style>
<path class="st1" d="M374.7,40.9h93.4v257.6h-93.4V40.9L374.7,40.9z"/>
<path class="st1" d="M695.2,205.2v-53.6h144.1v109.9c-27.6,16-52,27-73.2,32.8s-46.3,8.7-75.4,8.7c-35.8,0-65-5.2-87.6-15.6
	c-22.6-10.4-40.1-25.9-52.5-46.6c-12.4-20.6-18.6-44.3-18.6-71c0-28.1,6.8-52.6,20.4-73.4s33.5-36.6,59.7-47.3
	c20.4-8.3,47.9-12.5,82.5-12.5c33.3,0,58.3,2.6,74.8,7.7c16.5,5.2,30.2,13.2,41.2,24c10.9,10.8,19.1,24.6,24.6,41.2l-89.9,13.7
	c-3.7-9.7-10-17.2-18.8-22.3s-20.1-7.7-33.9-7.7c-20.4,0-36.7,6.1-48.9,18.2c-12.1,12.1-18.2,31.3-18.2,57.5
	c0,27.9,6.1,47.8,18.4,59.7s29.4,17.9,51.3,17.9c10.4,0,20.4-1.3,29.8-3.9s20.3-7,32.5-13.2v-24.2L695.2,205.2L695.2,205.2z"/>
<path class="st2" d="M297.1,77.2L210,126.1l-1-18.3c-2.7-6.7-6.6-11.8-11.8-15.5c-7.5-5.3-17.8-7.9-31-7.9c-10.8,0-19,2-24.5,5.9
	s-8.2,8.7-8.2,14.3c0,4.1,2.3,7.8,6.8,11.1c4.4,3.4,14.8,6.6,31.3,9.5c40.8,7.5,69.9,15.1,87.6,22.8c17.6,7.7,30.5,17.2,38.5,28.5
	c8,11.4,12,24.1,12,38.1c0,16.5-5.3,31.7-16,45.7C283,274.2,268,284.8,248.8,292s-43.4,10.8-72.7,10.8c-19.3,0-36.4-1.2-51.2-3.6
	l0.1,27.6L0,262.5l124.7-62v8.2c1.9,12.2,5.8,21.6,11.7,28c9.6,10.4,23.3,15.6,41.2,15.6c13.3,0,23.6-2.7,30.8-8
	s10.8-11.5,10.8-18.5c0-6.7-3.4-12.6-10.3-17.9s-22.8-10.2-47.8-14.9c-40.9-7.9-70-18.3-87.5-31.3c-17.6-13-26.3-29.6-26.3-49.7
	c0-13.2,4.5-25.7,13.5-37.5s22.5-21,40.5-27.8c18-6.7,42.8-10.1,74.2-10.1c10.7,0,20.6,0.5,29.9,1.4l-2-38l128,58.1L297.1,77.2"/>
</svg>
