<svg width="32" height="32" viewBox="0 0 32 32" fill="none" xmlns="http://www.w3.org/2000/svg">
<g id="bx-home-circle.svg">
<path id="Vector" d="M4.00004 17.3333H5.33337V26.6666C5.33337 28.1373 6.52937 29.3333 8.00004 29.3333H24C25.4707 29.3333 26.6667 28.1373 26.6667 26.6666V17.3333H28C28.2637 17.3333 28.5214 17.255 28.7407 17.1085C28.9599 16.962 29.1307 16.7538 29.2316 16.5102C29.3325 16.2666 29.3589 15.9985 29.3075 15.7399C29.2561 15.4813 29.1291 15.2438 28.9427 15.0573L16.9427 3.05732C16.819 2.93339 16.6721 2.83507 16.5103 2.76799C16.3485 2.70091 16.1752 2.66638 16 2.66638C15.8249 2.66638 15.6515 2.70091 15.4898 2.76799C15.328 2.83507 15.1811 2.93339 15.0574 3.05732L3.05737 15.0573C2.87096 15.2438 2.74402 15.4813 2.6926 15.7399C2.64117 15.9985 2.66758 16.2666 2.76847 16.5102C2.86936 16.7538 3.04022 16.962 3.25943 17.1085C3.47864 17.255 3.73637 17.3333 4.00004 17.3333ZM16 5.88532L24 13.8853V20L24.0014 26.6666H8.00004V13.8866L16 5.88532Z" fill="#004C64"/>
<path id="Vector_2" d="M16 22.6667C18.9413 22.6667 21.3333 20.2747 21.3333 17.3333C21.3333 14.392 18.9413 12 16 12C13.0586 12 10.6666 14.392 10.6666 17.3333C10.6666 20.2747 13.0586 22.6667 16 22.6667ZM16 14.6667C17.4706 14.6667 18.6666 15.8627 18.6666 17.3333C18.6666 18.804 17.4706 20 16 20C14.5293 20 13.3333 18.804 13.3333 17.3333C13.3333 15.8627 14.5293 14.6667 16 14.6667Z" fill="#004C64"/>
</g>
</svg>
