<svg width="32" height="32" viewBox="0 0 32 32" fill="none" xmlns="http://www.w3.org/2000/svg">
<g id="bxs-bell-ring.svg">
<path id="Vector" d="M7.60671 4.94669L5.72671 3.05335C1.33337 7.41735 1.33337 10.58 1.33337 14.6667H2.66671L4.00004 14.5827C4.00004 10.6787 4.00004 8.52802 7.60671 4.94669ZM26.272 3.05335L24.3947 4.94669C28 8.52802 28 10.6787 28 14.6667L30.6667 14.5827C30.6667 10.58 30.6667 7.41735 26.272 3.05335ZM16 29.3334C16.8258 29.3344 17.6313 29.0781 18.3047 28.6002C18.9781 28.1223 19.4858 27.4465 19.7574 26.6667H12.2427C12.5143 27.4465 13.022 28.1223 13.6954 28.6002C14.3688 29.0781 15.1743 29.3344 16 29.3334ZM25.3334 19.448V13.3334C25.3334 9.04402 22.42 5.43069 18.4734 4.34402C18.0827 3.36002 17.128 2.66669 16 2.66669C14.872 2.66669 13.9174 3.36002 13.5267 4.34402C9.57871 5.43069 6.66671 9.04402 6.66671 13.3334V19.448L4.39071 21.724C4.26665 21.8476 4.16827 21.9946 4.10122 22.1563C4.03417 22.3181 3.99979 22.4916 4.00004 22.6667V24C4.00004 24.3536 4.14052 24.6928 4.39056 24.9428C4.64061 25.1929 4.97975 25.3334 5.33337 25.3334H26.6667C27.0203 25.3334 27.3595 25.1929 27.6095 24.9428C27.8596 24.6928 28 24.3536 28 24V22.6667C28.0003 22.4916 27.9659 22.3181 27.8989 22.1563C27.8318 21.9946 27.7334 21.8476 27.6094 21.724L25.3334 19.448Z" fill="#004C64"/>
</g>
</svg>
