<svg width="32" height="32" viewBox="0 0 32 32" fill="none" xmlns="http://www.w3.org/2000/svg">
<path d="M16.0001 14.9626L19.5561 17.3333L18.3694 13.1853L21.3334 10.6666L17.7774 10.2226L16.0001 6.66663L14.2227 10.2226L10.6667 10.6666L13.6307 13.1853L12.4441 17.3333L16.0001 14.9626Z" fill="#003F47"/>
<path d="M25.3334 28.964V5.33329C25.3334 4.62605 25.0525 3.94777 24.5524 3.44767C24.0523 2.94758 23.374 2.66663 22.6667 2.66663H9.33341C8.62617 2.66663 7.94789 2.94758 7.4478 3.44767C6.9477 3.94777 6.66675 4.62605 6.66675 5.33329V28.964L16.0001 22.8693L25.3334 28.964ZM10.6667 10.6666L14.2227 10.2226L16.0001 6.66663L17.7774 10.2226L21.3334 10.6666L18.3694 13.1853L19.5561 17.3333L16.0001 14.9626L12.4441 17.3333L13.6307 13.1853L10.6667 10.6666Z" fill="#003F47"/>
</svg>
