<?xml version="1.0" encoding="UTF-8"?>
<!DOCTYPE svg PUBLIC "-//W3C//DTD SVG 1.1//EN" "http://www.w3.org/Graphics/SVG/1.1/DTD/svg11.dtd">
<svg xmlns="http://www.w3.org/2000/svg" version="1.1" width="512px" height="512px" style="shape-rendering:geometricPrecision; text-rendering:geometricPrecision; image-rendering:optimizeQuality; fill-rule:evenodd; clip-rule:evenodd" xmlns:xlink="http://www.w3.org/1999/xlink">
<g><path style="opacity:1" fill="#a87e6b" d="M 180.5,9.5 C 180.785,31.5943 180.785,53.761 180.5,76C 181.366,80.5678 183.199,84.7345 186,88.5C 189.328,91.3327 192.995,93.666 197,95.5C 212.216,95.4376 227.216,95.4376 242,95.5C 261.914,93.2965 280.247,86.2965 297,74.5C 309.936,85.8 324.936,92.8 342,95.5C 344.955,95.3218 348.121,95.3218 351.5,95.5C 350.688,108.647 343.688,115.981 330.5,117.5C 309.694,117.368 291.527,110.034 276,95.5C 252.942,111.267 228.109,118.6 201.5,117.5C 194.333,117.323 187.333,117.323 180.5,117.5C 171.541,116.776 165.041,112.442 161,104.5C 159.858,90.0651 159.358,75.5651 159.5,61C 159.667,47.5 159.833,34 160,20.5C 164.286,12.2713 171.119,8.60462 180.5,9.5 Z"/></g>
<g><path style="opacity:1" fill="#be927c" d="M 180.5,9.5 C 222.168,9.33334 263.835,9.50001 305.5,10C 310.789,11.2244 314.955,14.0578 318,18.5C 318.966,23.9345 320.299,29.2678 322,34.5C 324.264,37.4335 327.098,39.6001 330.5,41C 338.859,40.5971 345.359,43.7638 350,50.5C 351.451,65.4283 351.951,80.4283 351.5,95.5C 348.121,95.3218 344.955,95.3218 342,95.5C 324.936,92.8 309.936,85.8 297,74.5C 280.247,86.2965 261.914,93.2965 242,95.5C 227.216,95.4376 212.216,95.4376 197,95.5C 192.995,93.666 189.328,91.3327 186,88.5C 183.199,84.7345 181.366,80.5678 180.5,76C 180.785,53.761 180.785,31.5943 180.5,9.5 Z"/></g>
<g><path style="opacity:1" fill="#feddc6" d="M 330.5,117.5 C 330.899,132.877 330.399,148.21 329,163.5C 327.233,174.024 323.066,183.358 316.5,191.5C 295.185,202.667 273.852,204.834 252.5,198C 224.596,187.127 208.263,167.127 203.5,138C 201.558,130.725 200.891,123.892 201.5,117.5C 228.109,118.6 252.942,111.267 276,95.5C 291.527,110.034 309.694,117.368 330.5,117.5 Z"/></g>
<g><path style="opacity:1" fill="#f5cbaf" d="M 201.5,117.5 C 200.891,123.892 201.558,130.725 203.5,138C 208.263,167.127 224.596,187.127 252.5,198C 273.852,204.834 295.185,202.667 316.5,191.5C 314.016,196.275 310.683,200.441 306.5,204C 307.056,204.383 307.389,204.883 307.5,205.5C 307.5,206.167 307.167,206.5 306.5,206.5C 305.749,205.427 304.749,205.26 303.5,206C 280.98,223.968 255.98,228.301 228.5,219C 220.082,215.045 212.082,210.545 204.5,205.5C 200.19,200.347 196.023,195.014 192,189.5C 185.738,179.045 182.071,167.712 181,155.5C 180.5,142.838 180.333,130.171 180.5,117.5C 187.333,117.323 194.333,117.323 201.5,117.5 Z"/></g>
<g><path style="opacity:1" fill="#edb996" d="M 203.5,205.5 C 203.833,205.5 204.167,205.5 204.5,205.5C 212.082,210.545 220.082,215.045 228.5,219C 255.98,228.301 280.98,223.968 303.5,206C 304.749,205.26 305.749,205.427 306.5,206.5C 302.208,219.052 297.541,231.386 292.5,243.5C 284.757,244.248 276.924,244.581 269,244.5C 260.743,242.636 252.743,239.97 245,236.5C 236.756,237.114 233.089,241.78 234,250.5C 238.516,262.859 243.016,275.192 247.5,287.5C 242.737,287.774 238.07,287.441 233.5,286.5C 223.499,259.495 213.499,232.495 203.5,205.5 Z"/></g>
<g><path style="opacity:1" fill="#6fabe5" d="M 203.5,205.5 C 213.499,232.495 223.499,259.495 233.5,286.5C 231.052,287.473 228.385,287.806 225.5,287.5C 216.597,285.214 208.597,281.047 201.5,275C 184.934,258.935 168.934,242.435 153.5,225.5C 170.011,218.658 186.678,211.991 203.5,205.5 Z"/></g>
<g><path style="opacity:1" fill="#5c9ad8" d="M 307.5,205.5 C 313.319,207.656 318.985,209.99 324.5,212.5C 324.804,213.15 325.137,213.817 325.5,214.5C 318.302,233.429 311.302,252.429 304.5,271.5C 304.819,278.868 308.486,284.201 315.5,287.5C 302.656,287.829 289.989,287.495 277.5,286.5C 282.319,272.041 287.319,257.708 292.5,243.5C 297.541,231.386 302.208,219.052 306.5,206.5C 307.167,206.5 307.5,206.167 307.5,205.5 Z"/></g>
<g><path style="opacity:1" fill="#6fabe6" d="M 324.5,212.5 C 344.215,219.401 363.548,227.067 382.5,235.5C 361.516,252.487 340.849,269.82 320.5,287.5C 318.833,287.5 317.167,287.5 315.5,287.5C 308.486,284.201 304.819,278.868 304.5,271.5C 311.302,252.429 318.302,233.429 325.5,214.5C 325.137,213.817 324.804,213.15 324.5,212.5 Z"/></g>
<g><path style="opacity:1" fill="#5b9ad8" d="M 153.5,225.5 C 168.934,242.435 184.934,258.935 201.5,275C 208.597,281.047 216.597,285.214 225.5,287.5C 214.167,287.5 202.833,287.5 191.5,287.5C 172.357,271.198 153.024,255.031 133.5,239C 131.859,237.871 130.859,236.371 130.5,234.5C 138.051,231.225 145.717,228.225 153.5,225.5 Z"/></g>
<g><path style="opacity:1" fill="#81bbf3" d="M 130.5,234.5 C 130.859,236.371 131.859,237.871 133.5,239C 153.024,255.031 172.357,271.198 191.5,287.5C 177.167,287.5 162.833,287.5 148.5,287.5C 141.5,287.5 134.5,287.5 127.5,287.5C 127.5,319.5 127.5,351.5 127.5,383.5C 116.162,383.333 104.828,383.5 93.5,384C 85.6861,387.143 83.5194,392.643 87,400.5C 88.3189,402.487 90.1523,403.654 92.5,404C 104.162,404.5 115.829,404.667 127.5,404.5C 127.667,422.503 127.5,440.503 127,458.5C 125.238,457.926 123.405,457.593 121.5,457.5C 89.4626,452.965 70.1293,434.799 63.5,403C 63.5,397 63.5,391 63.5,385C 71.3381,340.42 78.3381,296.253 84.5,252.5C 99.7495,246.305 115.083,240.305 130.5,234.5 Z"/></g>
<g><path style="opacity:1" fill="#81bbf3" d="M 382.5,235.5 C 402.669,241.753 422.003,249.92 440.5,260C 459.543,274.243 471.377,293.076 476,316.5C 484.564,353.82 493.064,391.154 501.5,428.5C 500.753,439.425 497.087,449.091 490.5,457.5C 458.47,457.774 426.47,458.107 394.5,458.5C 394.167,458.5 393.833,458.5 393.5,458.5C 390.375,457.521 387.042,457.187 383.5,457.5C 383.5,450.5 383.5,443.5 383.5,436.5C 383.5,425.833 383.5,415.167 383.5,404.5C 395.171,404.667 406.838,404.5 418.5,404C 423.308,402.688 425.642,399.521 425.5,394.5C 425.598,388.852 422.931,385.352 417.5,384C 406.172,383.5 394.838,383.333 383.5,383.5C 383.5,351.5 383.5,319.5 383.5,287.5C 362.5,287.5 341.5,287.5 320.5,287.5C 340.849,269.82 361.516,252.487 382.5,235.5 Z"/></g>
<g><path style="opacity:1" fill="#f5cbaf" d="M 292.5,243.5 C 287.319,257.708 282.319,272.041 277.5,286.5C 267.582,287.474 257.582,287.807 247.5,287.5C 243.016,275.192 238.516,262.859 234,250.5C 233.089,241.78 236.756,237.114 245,236.5C 252.743,239.97 260.743,242.636 269,244.5C 276.924,244.581 284.757,244.248 292.5,243.5 Z"/></g>
<g><path style="opacity:1" fill="#6fabe5" d="M 84.5,252.5 C 78.3381,296.253 71.3381,340.42 63.5,385C 63.5,391 63.5,397 63.5,403C 70.1293,434.799 89.4626,452.965 121.5,457.5C 120.081,458.451 118.415,458.784 116.5,458.5C 117.106,465.93 119.106,472.93 122.5,479.5C 104.626,480.08 86.1259,480.413 67,480.5C 32.1786,478.343 13.1786,460.009 10,425.5C 19.3736,383.34 29.3736,341.34 40,299.5C 48.8496,278.151 63.683,262.484 84.5,252.5 Z"/></g>
<g><path style="opacity:1" fill="#dad6e4" d="M 148.5,287.5 C 151.208,352.794 183.208,399.294 244.5,427C 257.021,431.421 269.521,434.588 282,436.5C 316.242,436.783 350.076,436.783 383.5,436.5C 383.5,443.5 383.5,450.5 383.5,457.5C 387.042,457.187 390.375,457.521 393.5,458.5C 310.499,458.333 227.499,458.5 144.5,459C 151.451,469.899 161.284,476.732 174,479.5C 242,479.5 310,479.5 378,479.5C 381.797,478.426 385.63,477.426 389.5,476.5C 389.443,477.609 389.11,478.609 388.5,479.5C 381.227,492.151 370.227,499.318 355.5,501C 322.333,501.167 289.167,501.333 256,501.5C 220.472,501.643 184.972,501.143 149.5,500C 137.705,496.688 128.705,489.854 122.5,479.5C 119.106,472.93 117.106,465.93 116.5,458.5C 118.415,458.784 120.081,458.451 121.5,457.5C 123.405,457.593 125.238,457.926 127,458.5C 127.5,440.503 127.667,422.503 127.5,404.5C 127.5,397.5 127.5,390.5 127.5,383.5C 127.5,351.5 127.5,319.5 127.5,287.5C 134.5,287.5 141.5,287.5 148.5,287.5 Z"/></g>
<g><path style="opacity:1" fill="#eceaf1" d="M 233.5,286.5 C 238.07,287.441 242.737,287.774 247.5,287.5C 257.582,287.807 267.582,287.474 277.5,286.5C 289.989,287.495 302.656,287.829 315.5,287.5C 317.167,287.5 318.833,287.5 320.5,287.5C 341.5,287.5 362.5,287.5 383.5,287.5C 383.5,319.5 383.5,351.5 383.5,383.5C 383.5,390.5 383.5,397.5 383.5,404.5C 383.5,415.167 383.5,425.833 383.5,436.5C 350.076,436.783 316.242,436.783 282,436.5C 269.521,434.588 257.021,431.421 244.5,427C 183.208,399.294 151.208,352.794 148.5,287.5C 162.833,287.5 177.167,287.5 191.5,287.5C 202.833,287.5 214.167,287.5 225.5,287.5C 228.385,287.806 231.052,287.473 233.5,286.5 Z"/></g>
<g><path style="opacity:1" fill="#39516a" d="M 262.5,330.5 C 272.988,329.487 277.488,334.154 276,344.5C 269.148,365.583 262.148,386.583 255,407.5C 251.371,415.946 245.538,417.78 237.5,413C 234.607,408.975 233.774,404.475 235,399.5C 242.075,377.275 249.742,355.275 258,333.5C 259.652,332.601 261.152,331.601 262.5,330.5 Z"/></g>
<g><path style="opacity:1" fill="#385069" d="M 210.5,340.5 C 222.036,341.911 225.536,347.911 221,358.5C 216.167,363.333 211.333,368.167 206.5,373C 212.366,378.531 217.866,384.365 223,390.5C 224.551,399.092 221.051,403.758 212.5,404.5C 209.771,404.705 207.438,403.872 205.5,402C 198,394.5 190.5,387 183,379.5C 180.365,375.649 180.031,371.649 182,367.5C 191.117,357.877 200.617,348.877 210.5,340.5 Z"/></g>
<g><path style="opacity:1" fill="#385069" d="M 294.5,340.5 C 297.607,340.351 300.607,340.851 303.5,342C 312,350.5 320.5,359 329,367.5C 330.969,371.649 330.635,375.649 328,379.5C 320.167,387.333 312.333,395.167 304.5,403C 291.243,406.638 286.077,401.805 289,388.5C 294.167,383.333 299.333,378.167 304.5,373C 299.667,368.167 294.833,363.333 290,358.5C 285.645,350.928 287.145,344.928 294.5,340.5 Z"/></g>
<g><path style="opacity:1" fill="#5b9ad8" d="M 127.5,383.5 C 127.5,390.5 127.5,397.5 127.5,404.5C 115.829,404.667 104.162,404.5 92.5,404C 90.1523,403.654 88.3189,402.487 87,400.5C 83.5194,392.643 85.6861,387.143 93.5,384C 104.828,383.5 116.162,383.333 127.5,383.5 Z"/></g>
<g><path style="opacity:1" fill="#5b9ad8" d="M 383.5,383.5 C 394.838,383.333 406.172,383.5 417.5,384C 422.931,385.352 425.598,388.852 425.5,394.5C 425.642,399.521 423.308,402.688 418.5,404C 406.838,404.5 395.171,404.667 383.5,404.5C 383.5,397.5 383.5,390.5 383.5,383.5 Z"/></g>
<g><path style="opacity:1" fill="#6fabe5" d="M 490.5,457.5 C 483.514,467.965 473.848,474.798 461.5,478C 449.905,479.772 438.238,480.605 426.5,480.5C 413.641,479.777 400.974,479.444 388.5,479.5C 389.11,478.609 389.443,477.609 389.5,476.5C 392.668,471.037 394.334,465.037 394.5,458.5C 426.47,458.107 458.47,457.774 490.5,457.5 Z"/></g>
<g><path style="opacity:1" fill="#eceaf1" d="M 393.5,458.5 C 393.833,458.5 394.167,458.5 394.5,458.5C 394.334,465.037 392.668,471.037 389.5,476.5C 385.63,477.426 381.797,478.426 378,479.5C 310,479.5 242,479.5 174,479.5C 161.284,476.732 151.451,469.899 144.5,459C 227.499,458.5 310.499,458.333 393.5,458.5 Z"/></g>
</svg>
